<?xml version="1.0" encoding="utf-8"?>
<!-- Generator: Adobe Illustrator 22.0.1, SVG Export Plug-In . SVG Version: 6.00 Build 0)  -->
<svg version="1.1" xmlns="http://www.w3.org/2000/svg" xmlns:xlink="http://www.w3.org/1999/xlink" x="0px" y="0px"
	 viewBox="0 0 1854.1 814" style="enable-background:new 0 0 1854.1 814;" xml:space="preserve">
<style type="text/css">
	.st0{fill:#FFFFFF;}
	.st1{fill:#FF0000;}
	.st2{fill:#FF2020;}
</style>
<g id="map">
	<g>
		<path class="st0" d="M1854.1,316.2c0,127.4,0,254.8,0,382.2c-4,1.1-7.6-0.8-11.3-1.6c-2.6-0.5-5.6-0.1-8.2,0.6
			c-2.7,0.7-5.3,2.2-7.9,3.4c-1.2,0.5-2.2,1.2-3.4,1.7c-1.4,0.6-2.9,1.3-4.3,1.3c-2,0.1-4-0.7-6-0.6c-2.9,0.2-4.7-0.9-6.1-3.7
			c-4.4-9.2-9.7-17.5-17.8-23.8c-6.8-5.3-13.4-10.9-21.8-12.1c-9-1.3-15.9-5.4-21-13.4c-0.8-1.2-2.8-1.9-4.3-2
			c-5.2-0.5-10.7,1.2-15.7-1.6c-0.5-0.3-1.4,0-2.2,0.1c-0.1,2.6-0.2,5-0.3,7.6c-7,0.6-13.1-1.3-18.1-6.1c-3.4-3.3-6.5-5.9-11.3-4
			c-5.5,2.2-12.9-1-15.8,6.2c-2.5-0.8-4.6-2.4-6.5-2.1c-10.1,1.5-20.1,3.5-30.2,5.3c-3.7,0.7-7.8,5.1-8.5,9.2
			c-0.4,2.2-0.9,4.4-1.4,6.5c-0.8-3.7-0.7-7.3-0.8-10.8c0-1-0.2-2.1-0.7-2.8c-1.3-1.8-2.7-3.6-4.3-5c-2.9-2.3-5.8-5-9.1-6.3
			c-4.2-1.6-8.8-1.9-13.2-2.9c-2.7-0.6-4.8-0.1-6.3,2.6c-0.6,1-2,2.5-2.8,2.3c-7.1-1.1-14.4-2-21.3-3.9c-6.4-1.8-12.5-4.9-18.8-7.2
			c-5.9-2.1-12.7-0.2-17.7-6.7c-3.1-4-9.1-5.2-12.4-9.1c-3.3-3.8-6.8-6.5-11.1-8.3c0.2-1.7,0.5-3.2,0.7-4.9c1.6,0.5,3.1,0.9,4.8,1.4
			c-0.4-2.8-0.8-5.3-1.2-7.8c0.4,0,0.7-0.1,1.1-0.1c0.6,2.8,1.3,5.6,2.1,9.2c1.5-3.2,2.5-6.2,4.1-8.5c1.7-2.5,3.9-4.9,6.3-6.5
			c2.2-1.4,5.2-6.1,3.9-8.6c-2.7-5-4.6-11.2-12.2-10.4c0.2-4-0.2-7.8,0.8-11.2c4.1-13.8,9.2-27.4,12.9-41.3
			c1.7-6.6,1.2-13.8,1.5-20.8c0-0.9-0.7-1.9-1.4-2.6c-3.3-3.4-3.1-7.4-2.5-11.7c1.7,0,3.2,0,4.7,0c0.1-1.5,0-2.7,0.3-3.8
			c2.1-7.2,1.6-14.3-0.8-21.3c-2.6-7.5-4.9-15-7.6-22.4c-1.4-3.9-2.9-8.3-8.3-7.3c-0.3,0.1-0.8-0.5-1.5-0.9
			c4.4-4.4,4.1-9.6,2.1-14.9c-2-5.4-4.1-10.7-6.5-15.9c-1.3-2.7-2.9-5.6-5.1-7.3c-2.2-1.6-2.1-2.8-1.8-5.3c0.4-3.3,1-7.7-0.6-10
			c-3.3-5-7.7-9.2-12.1-13.1c-2.7-2.4-6.5-3.4-9.1-5.9c-7.3-7-8.4-23.6-2.1-32c4.3-5.8,9.3-11,13.8-16.7c5.3-6.6,6.6-8.6,3.7-13.8
			c-2.8-5-6.6-9.4-10.6-13.4c-2.8-2.8-4.5-5.5-4.5-9.5c0-4.1-4.6-9-8.4-8.7c-5.9,0.5-11.9,0.8-17.1,4.4c-4.5,3.1-9,6.3-13.6,9.2
			c-1,0.6-2.7,1.2-3.5,0.7c-4.2-2.3-5.2-10-1.8-13.7c1.9-1.9,2.1-3.9,1.3-6.3c-4.5-15.3-9.9-30.2-12-46.3
			c-1.1-8.4-3.8-16.4,2.3-23.8c0.4-0.5,0.4-2,0.1-2.7c-1.5-3.8-3.1-7.5-5-11.9c0.7-0.9,4.3-0.6,3.4-4.5c-1.1-4.5-1.7-9.1-2.9-13.5
			c-1.2-4.6-2.4-9-7.5-10.8c-2.4-0.8-4.3-3.3-6.4-5c-2-1.6-3.8-3.6-5.9-4.9c-3.5-2.2-4.6-5.6-4.2-10.1c0.7-6.6,1.3-13.4,0.7-20
			c-0.7-8.5-1.2-8.4-8.9-8.4c-1.9,0-3.9,0.2-5.8-0.1c-2.1-0.3-4.2-1.1-6.5-1.8c0.7-2,1.1-3.2,1.5-4.4c3.2-0.2,6.9,3.1,8.7-1.6
			c0.7-1.7,0-4.6-1-6.2c-0.8-1.4-3.1-1.7-5-2.7c2.3-1.2,4.5-2.4,6.5-3.4c1.4-2.8-0.5-5.4-0.1-8.5c-8.3,0-16.4,0-23.4,0
			c-1.6,4-2.4,7.9-4.4,10.7c-2.4,3.3-2,6.3-1.6,9.8c3.5,0.3,6.9,1,10.2,0.8c3.5-0.2,5.1,1.1,5,5.1c-4,3.1-8.3-0.5-12.7,0.4
			c0.8,1,1.6,1.8,2.2,2.8c2.7,4,5.5,7.8,3.8,13.3c-0.8,2.6,0.1,4.7,2.1,6.7c1.4,1.3,2.5,3.4,2.8,5.4c0.8,4.2,1,8.5,1.6,12.7
			c0.3,2.4,1.1,4.7,1.4,7.1c0.7,6.3,1.1,7,6.7,5.4c2.1-0.6,2.4,0.1,2.8,2c1,4.3,2.5,8.6,3.5,12.9c0.9,3.5,2,7,2,10.5
			c0,3,0.2,5.5,1.9,7.8c3.7,4.9,4.3,9.9,1.4,15.7c-0.9,1.8-1.1,2.5-3.2,1.9c-3.9-1-4.8,0.6-3.6,5c0.3,1.2,0.8,2.6,0.7,3.7
			c-1.1,8.1,1.7,11.1,8,15.1c0.8-1.4,1.6-2.9,2.6-4.6c1,1.7,1.5,3.6,2.4,3.9c3.2,1.1,2.4,3.1,1.8,5.5c-0.4,1.4-0.5,3-0.3,4.4
			c0.3,2.2,1.1,4.3,1.5,6.5c0.6,3.3,1.1,6.6,1.5,9.8c0.3,2.1,0.4,4.1,0.5,6.2c0.1,3.2-1.2,7.4,0.3,9.4c2.6,3.6,4.1,7.2,5.4,11.5
			c0.7,2.4,2.2,6.4,5.8,4.9c3.1-1.3,4.8-0.9,6.2,2.2c0.4,0.9,1.7,1.4,2.5,2.2c1.7,1.6,3.7,3,4.8,5c5,8.8,7.7,18.7,7.7,28.9
			c0,4.3,0.3,8,2.6,11.7c-2.7,2.1-2.7,4.3-0.7,6.9c0.9,1.2,0.8,3.2,1.3,4.7c0.5,1.8,1,3.7,1.7,5.4c0.9,2.1,2.5,3.9,3.1,6
			c1,3.5,2.5,5.7,6.1,6c3.1,0.2,5.5,2.3,5.5,5.4c0,4,2.2,5.8,4.4,8c1.7,1.7,3.1,3.2,1.7,6c-0.5,1-0.3,2.6,0.1,3.6
			c1.1,3.1,2.3,6.1,3.8,9c0.5,1,2.1,2.3,3,2.1c6.3-1.3,8.3-0.1,10.1,6.5c-1.1,0.2-2.2,0.5-3.2,0.7c-0.2,2.7-0.4,5.2-0.6,7.9
			c0.9,0.4,2,1,3.1,1.6c-0.3,0.2-0.6,0.4-1,0.7c1.4,2.6,2.2,6.5,4.2,7.6c3.6,1.9,4,4.7,3.2,7.6c-0.9,3.1,0,4.9,2,6.3
			c2.1,1.5,3.2,2.8,2,5.7c-0.2,0.6,1.2,2.8,2.1,2.9c6.5,1.3,7.5,3.3,5.4,10.4c-0.2,0.8-0.1,1.7,0,2.5c0.5,3,1.5,5.9,1.6,8.9
			c0.2,5-0.4,10.1,3.1,14.3c0.8,1,1.1,2.6,1.4,3.9c1.4,7.8,2.8,15.6,4.2,23.8c1,0,2.3,0,3.6,0c4.5,0.1,7.7,4.6,6.3,9.3
			c-5.4,18-11.4,35.8-19.5,52.7c-1.2,2.5-2.8,4.9-3.3,7.6c-1,5.7-1.3,11.5-1.9,17.5c-0.5,0.1-1,0.3-1.6,0.5c-2.8,1.2-5.8,2-3.4,6.7
			c1.3,2.6-1.6,5.5-4.1,4.3c-1.6-0.8-2.7-2.5-4.5-4.1c-0.5,1.3-1.2,2.9-1.9,4.5c-4.8,0.9-3.4-3.5-4.4-6.7c-3,1.1-5.7,2.1-9.3,3.4
			c0.8-2.5,1.2-3.9,1.6-5.3c2.2,0,4.1,0,6,0c2.4,0.1,3.6-0.8,2.9-3.7c-1.3-5.7-2.5-11.5-3.9-17.2c-0.9-3.9-2.6-7.4-0.1-11.7
			c1.9-3.2,0.1-7.4-2.6-9.9c-0.6-0.5-1-1.3-1.4-2.1c-1.7-2.8-3.4-5.5-4.9-8.4c-0.6-1-0.9-2.4-1-3.6c-0.1-4.3,0.4-8.7-0.1-13
			c-0.3-3.4,1.2-5.3,3.2-7.2c1-1,2.3-1.7,3.9-2.8c-0.9-1.8-1.5-3.7-2.6-5c-3.1-3.8-6.6-7.3-9.5-11.2c-3-4-5.3-8.6-8.2-12.6
			c-3.2-4.4-4.1-9.7-4.5-14.8c-0.6-7.6-3.9-12.9-9.4-17.1c-1.2-0.9-2.6-2.2-2.9-3.6c-0.8-3.6-0.9-7.4-1.7-11.1
			c-2.1-9.9-4.1-19.8-6.9-29.4c-0.9-3.2-3.5-6.2-6-8.3c-3.9-3.3-8.4-5.8-12.7-8.4c-1.8-1-4-1.4-6-1.6c-3.2-0.4-6.6-0.1-9.7-1
			c-4.2-1.1-4.6-3.9-1.6-7.2c0.6-0.6,1.4-1,2-1.6c2-1.8,4.6-3.2,6-5.4c2-3.2-0.9-12.7-3.6-15.6c-3.3-3.5-6.1-7.5-9.3-11.1
			c-1.9-2.1-3.9-4.1-6-6c-2.9-2.6-5.9-5.1-9.4-8.1c2.4-1.1,3.8-1.6,5.1-2.5c2.5-1.6,5.1-3.3,7.5-5.1c0.6-0.5,0.8-1.6,1.1-2.5
			c-0.9,0-2-0.3-2.8,0c-4.7,1.8-9.2,4.6-14,5.4c-5.9,1-6.9,7.3-10.9,10c-0.3,0.2-0.3,1.4-0.1,1.9c1.3,2.7,2.5,5.6,4.3,8
			c2.6,3.6,5,7.2,5.1,12.1c0,0.7,0.3,1.9,0.7,2c3.1,1.3,5.6,4.7,9.5,3.3c0.7-0.3,2.1,0.6,2.7,1.4c0.6,0.8,0.5,2.2,0.8,3.4
			c-1,0.2-2.1,0.3-3.1,0.5c-0.6,0.1-1.1,0.1-2,0.1c0.1,1.4,0,2.7,0.4,3.6c4,7.9,7.5,16.1,12.3,23.4c4.5,6.8,10.3,12.5,15.5,18.7
			c2,2.5,3.8,5,3.2,8.9c-0.2,1.2,1.1,3.3,2.3,4.1c4.7,3.1,8,7,9.7,12.8c1.5,5,3.7,9.7,5.4,14.6c0.5,1.4,0.7,3.2,0.2,4.5
			c-1.1,2.9,0.3,4.1,2,5.7c1.9,1.8,3.6,4,4.7,6.4c1.3,2.8,2.2,5.9,2.8,9c0.4,2.1,0.9,5-0.1,6.4c-4.4,6.2-9.8,11.2-16.4,14.6
			c-3.8,1.9-8.8,0.9-11.9-2.2c-2.2-2.2-4.6-4.1-7-6c-6.4-5.1-14.9-6.3-21.1-13.3c2.1,6.2,4,11.8,5.8,17.3c-0.3,0.3-0.7,0.5-1,0.8
			c-0.8-1-2.2-1.8-2.4-2.9c-1.5-7.8-2.7-15.1-11.2-18.5c-4.1-1.6-7.5-2.3-11.3-0.8c-3.3-3.4-3.6-3.7-12-3.4c-3.4,0.1-5.1-1-6.1-4.6
			c-2.5-9-13.8-17.7-22.5-17.5c-4.3,0.1-8.4-0.3-12-3.1c-2.4-1.9-4.8-3.7-7.2-5.6c-1-0.8-2-2-3.2-2.3c-7-1.9-12.5-6.1-17.3-11.9
			c-1.1-1.4-2.8-2.3-4.5-3c-4.1-1.7-8.3-3-12.3-4.9c-3-1.4-5.6-4.5-8.6-5.1c-5.9-1.2-9.1-4.7-11.3-10.3c-1.6-4.2-4.2-4.5-7.5-1.6
			c3.5,3.4,4.5,4.8,4.4,5.9c-8.3-3.4-16.8-6.2-24.9-10.2c-6.3-3.1-11.9-2.6-17.8,0.4c-1.7,0.9-3.6,2.1-5.3,2
			c-7.1-0.4-14.5,2.1-21.1-2.7c-0.5-0.4-1.4-0.4-2.1-0.3c-3.7,0.4-7.1-0.1-10-3.1c-0.4-0.4-1-0.8-1.6-0.8c-6.7-0.6-13.3-1.5-20-1.6
			c-9.6-0.1-19.2,0.5-28.8,0.6c-1,0-2.3-0.9-3.1-1.8c-3.4-3.7-1.6-7.9-0.6-12.2c2.2,3.8,2.2,3.8,6.6,3.8c1.9,0,3.9,0.1,5.8,0
			c7.6-0.2,15.1-0.7,22.7-0.7c5.3,0,10.5,0.5,15.8,0.7c2.6,0.1,5.2,0,7.9,0c0-8.2,0-15.9,0-24.2c-2,2.6-3.6,4.8-5.2,7
			c-1.2-0.6-2.3-1.1-3.3-1.7c-4-2.2-4-2.1-4.2,2.8c-0.1,3-0.4,6-0.7,9c-0.5,0-0.9,0-1.4,0c-2-4.6-0.1-9.7-1.2-15.1
			c-3.2-0.7-6.6-1.5-10.1-2.3c-3.7-0.8-5.4,0.6-5.5,4.5c0,3.8,0.1,7.6-0.1,11.4c0,1.1-0.7,2.1-1.2,3.1c-0.3-0.1-0.7-0.2-1-0.4
			c0-4.8-0.2-9.7,0.1-14.5c0.3-3.8-1.3-5.4-4.3-6.4c-2.4-0.8-4.6-2.1-7.1-3.2c1.6-2.5,2.7-4.3,3.9-6c-0.2-0.4-0.4-0.7-0.6-1.1
			c-1.2,0.7-2.6,1.2-3.5,2.1c-3.1,3-6.3,5.5-10.7,2.7c-0.1-0.1-0.4,0.2-1.4,0.6c0,7.1,0,14.5,0,21.9c-0.5,0.1-1,0.1-1.6,0.2
			c-0.3-1.3-0.8-2.6-0.8-4c-0.1-6.7,0-13.4-0.1-20.1c0-1.2-0.6-2.8-1.5-3.5c-1.8-1.4-4-2.2-6.8-3.8c-0.2,3.3-0.4,6-0.5,8.6
			c-3.2-5.9-6.9-9.6-14.1-5.1c1.1-2.7,1.8-4.3,2.6-6.2c-3.8-2.1-5.9-7.1-11.3-6.1c-0.1,1.6-0.2,3.1-0.3,4.7c-0.2,0-0.4,0.1-0.6,0.1
			c-0.4-1.8-0.8-3.6-1.3-5.6c-2.1-0.3-4.2-0.5-6.3-0.8c-0.6,2.5-1.1,4.7-1.6,6.8c-0.5,0-0.9,0-1.4,0.1c-0.3-2.4-0.7-4.8-1.1-7.6
			c-1.6-0.1-3.5-0.2-5.3-0.4c-0.4,1.4-0.8,2.6-1.4,4.4c-1.1-1.7-1.8-2.8-2.7-4.4c-4.3,2.9-8.5,5.8-12.4,8.4
			c5.9,9.3,11.1,17.7,16.4,26c-1.8,3.9-4.5,1.5-6.8,1c-10.4-2.2-19.3-7.8-26.1-16.4c-7.1-9-13.2-18.9-19.9-28.4
			c-1.1-1.5-1-2.7,0.4-3.9c1.7-1.4,3.2-2.9,5-4.5c-4.5-4.3-8.6-8.4-13-12.2c-0.5-0.5-2.2-0.1-3,0.5c-3,2.4-5.8,5-8.8,7.6
			c-1.2-1.3-2.4-2.4-3.4-3.7c-2-2.4-3.9-4.9-6.1-7.1c-0.6-0.6-2.3-0.8-3-0.4c-11.4,7.6-22.4,15.8-32.1,25.9
			c-4.7,4.8-9.8,9.1-14.6,13.8c-5.7,5.4-11.2,10.9-16.8,16.4c0.4,1,0.7,1.7,0.8,2.4c0.5,3.5,2.6,6.9-1.7,10
			c-4.2,2.9-7.7,6.9-11.4,10.6c-5.7,5.7-12,10.1-19.3,12.8c-1.8,0.6-3.2,0.8-4.7-1c-0.6-0.8-2.6-1.3-3.4-0.8
			c-9,5.5-18.6,9.8-26.5,17.4c-2.1,2-4.8,4-8.3,1.4c-1.1-0.8-3.8,0.4-5.4,1.3c-1.7,0.9-3,2.5-4.5,3.7c-1.6,1.3-3.1,2.5-4.7,3.7
			c-4,3-5.8,9.9-12.4,8.8c-1.9-0.3-4.4-0.3-4.4,2.6c0,2.6,1.6,4.5,4.5,4.6c3.1,0.1,5.2,3,4,6.2c-0.7,1.9-2.1,3.7-3.6,4.9
			c-4.2,3.5-4.6,7.4-0.9,11.5c1,1.1,1.9,2.2,2.9,3.3c-4.9,0.4-5.3-5.5-8.8-6.9c-2.5,2-5,3.7-7.2,5.8c-0.8,0.8-1.6,3.2-1.2,3.9
			c2.2,3.3,4.7,6.2,6.5,8.4c4.7,0.1,6.5-7.5,12.2-0.8c-2.5,2.3-5.1,4.6-7.8,7.1c2.2,0.9,4.7,1.9,7.8,3.2c0.5-1,1.6-2.5,2.2-4.2
			c1.8-4.7,3-9.9,5.4-14.3c5.3-9.5,11.2-18.6,16.9-27.8c1.6-2.6,3.4-5,6.9-4.4c0.9,0.1,2-1.1,3-1.8c4.4-3.3,8.7-6.8,13.2-9.9
			c3.2-2.2,6.7-4,10.2-6.1c1.5,1.9,3.8,4.4,5.6,7.3c0.9,1.4,1.4,3.5,1.1,5.1c-1.4,7.7-4.7,14.5-8.4,21.2c-3.7,6.7-7.8,13.4-7.8,21.7
			c0,3.3,0.2,6.6,0,9.9c-0.1,1.5-1.1,2.9-1.3,4.5c-0.6,4.1-1.1,8.2-1.5,12.3c-0.4,4.2-0.6,8.5-0.8,13c2.3,0.4,4.3,0.3,6,1
			c2.5,1,2.7-0.4,2.7-2.4c0-2.6-0.2-5.3,0.1-7.9c1.3-9.8,2.8-19.6,4.2-29.4c1.4-10.2,4.9-19.7,9.1-28.8c3.2-6.9,7.2-13.3,10.5-20.1
			c1.9-3.8,4.9-5.5,8.3-5.9c6.1-0.6,12.2-0.8,18.4-0.9c4.4-0.1,6.1,3.3,4.3,7.5c-2.9,6.5-3.8,14-1,20.1c2.4,5.2,6.1,9.6,7.9,15.7
			c1,3.4,2.4,6.6,1.8,10c-1.2,6.7-2.8,13.3-1.9,20.1c0,0.4,0,0.8-0.2,1.2c-2.3,5.3,0.5,10.3,1.1,15.3c0.3,2.6,0.7,4.3-0.8,5.8
			c0.3,3.7,0,7.3-0.2,11c-0.1,0.8-0.4,1.9,0,2.4c1.8,2.3,0.6,4.4-1,5.3c-3.2,1.7-2.5,4.6-2.5,7.2c-0.1,2.2,0.5,4.5,0.1,6.6
			c-0.9,5.4,0.5,9.5,5.1,12.2c0.3,0.2,0.6,0.5,0.9,0.7c3.1,2.8,3.2,7.2,0.1,10c-1.5,1.4-3,2.8-4.5,4.2c0.1,0.1,0.2,0.2,0.3,0.3
			c2.7-1.6,5.4-3.3,8.3-5c1.8,4.2,3.4,7.8,4.7,11c3.2-0.2,5.9-0.3,9.8-0.6c-5.7-4.1-2.4-8.2-1.1-12.3c-3.2-1.8-6.2-3.3-9.1-5
			c-0.8-0.5-2.1-1.3-2.1-1.9c0.2-3.8-0.1-8,1.3-11.3c2.5-5.9,8.4-6.9,13.6-7.5c2.8-0.3,6.2,0.2,8.6,1.7c7.4,4.5,11,11.5,9.3,21
			c-0.4,2.5,0.9,4.4,3.3,4.5c4.5,0.2,9,0.1,13.5,0.1c-0.7-1.3-2.1-2.9-1.8-3.4c2.3-3.9-0.1-7.9,0.4-11.8c0.2-1.8-0.6-3.7-1.2-5.5
			c-2.3-6.7-6.3-12.7-6.7-20.2c-0.1-1.1-0.6-2.3-1.2-3.2c-3.7-5.5-7-11.6-11.5-16.2c-6-6.2-8.3-13.6-9.1-22c-0.3-3.1-1.1-6.9-2.9-9
			c-2.5-3-5.1-5.2-4-9.8c0.2-1-0.6-2.6-1.3-3.6c-4.9-7.4-9.8-14.7-15-21.9c-3.2-4.4-2.9-8.9,1.8-11.3c3.6-1.9,7.7-2.8,11.7-3.8
			c10.5-2.7,20.5-6.8,32-3.2c12.4,3.9,23,9.6,30.7,21.1c2.4,3.7,4.7,7.6,7.8,10.6c5.1,4.9,10.9,8.8,16.1,13.5
			c5.5,5.1,10.7,10.7,16,16.1c3.6,3.7,7,7.7,10.8,11.3c2.8,2.6,6,4.7,9,7c-0.3,0.5-0.6,1-1,1.5c-1.9-1.4-3.8-2.7-5.9-4.3
			c-2.9,4.8-6.9,8.9-7.9,15.2c-1,6.2,1.9,11.4,2.8,17.4c-0.6-5-4.3-4.2-6.9-5.1c-2.9-1-6.1-1.2-8.9-2.7c-5.9-3.1-11.3-1.2-16.2,2.1
			c-1.3,0.9-2.5,5-1.8,6c4.2,6,15.2,7.3,21.2,3.1c1.2-0.8,2.7-1.2,4-1.7c0.2,0.4,0.4,0.7,0.6,1.1c-0.3,0.8-0.6,1.6-1.1,2.3
			c-3.1,5-6.3,10-9.4,15c-0.5,0.9-1.1,2.3-0.8,3.1c1.1,3.4-1,4.9-3.2,5.2c-6.7,0.8-10.6,5-13.3,11.2c-0.4,1-1.3,1.8-2.1,2.5
			c-2.8,2.6-5.7,5.1-8.9,8c3.7,1.1,5.8-0.1,7.5-2.6c0.7-1,2-2.4,2.7-2.2c4.6,1.1,7.4-2.3,10.3-4.9c4.4-3.8,10.5-5.8,12.4-13
			c1.9,1.5,3.8,2.5,5.1,4c1.5,1.8,3.6,4.1,3.5,6c-0.5,5.3,1.8,9.7,3.3,14.1c2.2,6.2,5.4,12,8.3,17.9c0.8,1.5,2,3.2,3.4,3.9
			c5,2.5,8.6,6.1,10.8,11.7c1,2.8,3.3,5,5.4,7.9c-0.7,1-1.8,2.8-2.9,4.5c2.4,0,4.5-0.4,6.3-1.4c3.1-1.9,6-1.7,9.2-0.3
			c5.3,2.3,10.7,4,16.1,6c0.8,0.3,1.4,0.9,2.1,1.3c3.5,1.8,3.5,5.9,5.1,9c3.2,5.9,2.8,12,2.7,18.1c-0.1,3.9,0.5,7,3.4,9.7
			c2,1.9,3.1,4.6-0.1,7.1c-0.8,0.6-0.8,2.5-0.9,3.9c0,1.1,0.4,2.2,0.8,3.5c-2.9,0.5-5.4,1-7.8,1.4c0.4,9.1,5.8,16.9,4.8,26.3
			c-0.3,3.3-0.5,5.7-3.2,8.1c-2.8,2.5-4.8,6.3-7,9.6c-3.5,5.2-5.5,10.9-3.8,17.5c0.3,1.1-0.4,2.7-0.8,3.9c-0.5,1.4-1.3,2.7-2,4
			c-0.5,0.9-0.9,2.2-1.6,2.6c-3,1.4-4.5,4.3-6.5,6.8c-7.7,9.5-15.1,19.5-23.8,27.9c-6.8,6.6-15.2,11.3-23.1,16.4
			c-2.8,1.9-6.3,2.7-9.4,3.9c-6.5,0-13,0-19.6,0c-0.9-0.8-2.1-1.5-2.6-2.5c-4.5-9.2-9.4-18.2-13.2-27.7c-2.3-5.7-5.2-10.4-9.2-14.5
			c-4.8-4.8-9.6-9.5-14.4-14.1c-1.3-1.2-2.8-2.2-4.7-3.6c3.3-5.3,6.8-11.1,10.4-16.9c-0.3-0.4-0.6-0.8-1-1.2
			c-1.1,0.8-2.5,1.3-3.2,2.4c-2.3,3.7-4.3,7.7-6.6,11.3c-2.3,3.5-4.7,3.5-7.6,0.3c-3.9-4.2-7.6-8.8-11.9-12.7
			c-3.5-3.1-7.1-6.8-12.7-6c0.4-4.4,0-8.3-3.7-11.4c-2-1.7-4.3-0.4-5.3-1.3c-2.8-2.5-6.6-4.6-6.4-9.8c2.8,0,5.6,0,8.3,0
			c1.2,0,2.5,0.1,3.5-0.5c5.6-3.5,6.6-9.8,3-15.8c-2.6-4.2-6.5-4.9-10.1-3.8c-2.5,0.8-5.3,3.7-6.4,6.4c-1.1,2.6-0.2,6.2-0.2,9.2
			c-4.3,2.9-8,0.9-11.1-1.7c-6.2-5.2-12.1-10.9-18.2-16.4c-0.8-0.7-2-2.3-2.4-2c-3,1.3-4.3-1.4-6.3-2.7c-0.8-0.5-1.5-1-2.5-1.6
			c-1.8,5.3-3.4,10.5-5.3,15.5c-2,5.4-4.7,10.4-9.4,13.8c-3.1,2.3-4,6-3.4,9.3c0.3,1.6,3.5,2.6,5.8,4.1c0.5-4.3,1-7.8,1.5-12
			c2.3,1.1,4.6,1.6,6.3,2.9c2.5,2.1,4.3,2.6,6.5-0.3c1.7-2.3,4.1-3,6.6-1.3c1.8,1.2,3.5,2.7,5.6,4.4c-2.1,2-3,2.9-4,3.7
			c-2.4,2.1-3,4.4-0.3,6.6c1.8,1.5,4,2.4,5.6,4c6,6.2,11.6,12.9,17.8,18.8c3,2.9,5.6,8.5,11.2,5.1c0.3-0.2,1,0,1.4,0.3
			c6.8,4,13.5,8.1,20.4,12.2c-0.7,1.9-1.6,3.9-2.1,6c-0.4,1.3-0.4,2.8-0.4,4.2c0,1.8,0.7,3.6,0.4,5.4c-0.5,3-1.2,6.1-2.2,8.9
			c-1.4,3.7-0.1,4.9,3,5.1c0.7-2,1.4-3.9,2.3-6.6c4,2.8,7.4,5.2,10.8,7.6c6.1,4.4,10.8,12.3,19.9,9c0.2-0.1,0.4,0.2,1.2,0.5
			c-1.3,3.2-2.6,6.4-3.9,9.6c-194.3,0-388.7,0-583,0c1.7-1.3,3.4-2.8,5.2-4c12.8-8.6,26-16.7,35.6-29.8c5.2-7,11.6-13.1,13.7-22.4
			c1.1-4.7,4.1-6.9,8.8-6.1c2.8,0.5,4.6-1,6.6-3c5.6-5.4,6.1-14.2,0.5-19.9c-1.7-1.7-1.9-3.3-0.9-5.5c1.8-3.9,3.4-8,5-12
			c4.5-11.2,8.8-22.4,13.3-33.5c2-4.8,4.3-9.4,6.6-14c4.6-9.5,9.1-19,13.9-28.4c1.1-2.1,3.6-4.6,5.4-4.6c3.3,0,6.5,1.5,8.2-3.1
			c0.2-0.6,1.7-0.7,2.6-1.1c1-0.4,2.1-0.6,2.9-1.3c3.5-2.9,6.9-5.8,10.4-8.8c7.1-6.1,14.4-12,21.3-18.3c3.4-3.2,7.1-6.4,8.3-11.8
			c1.1-4.9,9.8-11.3,14.4-11.8c2-0.2,4.3-1,5.9-2.4c4.2-3.5,8.1-7.3,12-11.1c7.1-7.1,14.2-14.3,21.2-21.4c2.1-2.1,4.9-3.7,6.1-6.3
			c1.9-4,4.7-6.6,7.9-9.2c5-4,10.6-7.3,12.2-14.8c0.4-2,2.3-4.5,4-5.2c5-2,8.1-6,10.5-10.6c2.1-4,5.1-6.4,8.4-9
			c4.4-3.5,8.7-7.1,11.3-12.7c0.8-1.7,1.9-3.7,3.4-4.4c4.5-2.4,7-6.4,9.4-10.8c1.1-1.9,2.9-3.3,4.4-4.7c1.5-1.5,3.4-2.6,4.7-4.1
			c3.6-4.2,6.8-8.8,10.5-12.8c4.7-5.1,7.9-10.8,8.7-18.2c-0.9-0.1-1.8-0.2-2.7-0.4c-0.7-0.2-1.7-1-2.1-0.7
			c-5.6,3.9-11.1,8-16.7,12.1c1.2,1.7,1.9,2.8,2.7,4c-1.2,0.9-2.1,1.6-3.2,2.4c-0.8-1.1-1.5-2.1-2.2-3.1c-0.7,0.4-1.4,0.7-2,1.2
			c-8.7,7.9-17,16.2-26.7,22.6c-0.9,0.6-2.8,0.8-3.2,0.3c-3.9-5-7.5-10.1-11.2-15.2c19.8-17.7,39.3-35.1,58.9-52.6
			c-3.2-4.5-6.2-8.6-9.4-13.1c-4.6,3.9-9.2,7.7-13.6,11.7c-14.8,13.1-29.5,26.2-44.3,39.4c-1.9,1.7-3.2,0.8-4.6-0.4
			c-3.3-2.8-6.4-5.8-9.6-8.7c-9.6-8.8-19.1-17.7-28.8-26.3c-2.5-2.2-5.6-3.6-8.5-5.4c0.6-1,1.6-2.6,2.6-4.3c-1.7-1.5-3.3-2.8-4.7-4
			c-4.5,1.7-2.8,5.6-2.7,9c-2.3-2.5-3.5-5.1-1.3-8.3c1.1-1.6,2-3.5,2.7-5.4c5.9-16.6,11.7-33.2,17.7-49.7c2.8-7.6,5.3-15.4,4.5-23.7
			c-1.1-11.7-2.7-23.3-4.1-35c-1.7-13.8-3.4-27.7-4.9-41.5c-0.2-1.4,0.6-3.7,1.7-4.4c2.1-1.6,4.7-2.4,7.4-3.6
			c1.7,16.7,3.3,32.4,4.9,48.1c6.5,1,11.8-1.9,17-5.3c2.1-1.4,2.3-3.1,2.1-5.3c-0.9-7.8-2-15.6-2.8-23.4
			c-1.3-11.7-2.4-23.4-3.8-35.1c-0.1-0.8-1.7-2-2.5-1.9c-3,0.2-5.9,0.8-8.8,1.2c-9.2,1.3-18.4,3-27.6,3.7c-4,0.3-8.5,2.9-12.3-1.2
			c-0.3-0.3-1.6-0.2-2.1,0.2c-3.7,3.3-7.5,6.6-11,10.3c-2.2,2.3-3.8,5.1-5.6,7.7c-0.4-0.1-0.8-0.3-1.3-0.4c0.1-1.4-0.2-3.1,0.5-4.1
			c6.9-10.4,16.1-17.4,27.3-20.9c15.5-4.8,31.1-9,46.7-13.5c33.5-9.8,67-19.7,100.5-29.4c8.9-2.6,17.9-4.2,26.5,1.2
			c1.3,0.8,2.8,1.5,4.1,2.3c4.4,2.7,8.9,5.4,13.5,8.3c2.2-3.7,4.3-7.2,6.3-10.4c1.6,1.3,2.8,2.5,4.4,3.8c-4,3-4.1,6.7-2.6,10.9
			c-1.6,0.1-2.8,0.2-4.1,0.3c-0.3,1.2-0.7,2.3-1,3.6c3,1.8,5.7,3.8,8.6,5.2c5.6,2.7,9,8,12.9,12.7c0.6,0.8,0.9,2.1,0.9,3.3
			c0.2,2.4-0.5,5,1.8,6.8c0.3,0.2,0.1,1.7-0.3,2.4c-7.5,15.6-15.1,31.1-22.8,46.6c-2.1,4.1-4,8.8-7.3,11.6
			c-6.2,5.4-13.2,9.6-20,14.1c-1.1,0.7-3.2,0.7-4.4,0.1c-5.7-2.8-11.3-6-17.1-9.1c-3,5.9-5.8,11.6-8.9,17.1
			c-1.3,2.4-0.5,3.9,1.2,5.3c3.6,3,7.1,6,10.9,9.1c2.3-3.4,4.7-6.8,6.8-10c19,15.4,37.7,30.6,56.5,45.8c1.2-0.7,2.5-1.3,3.6-2
			c16.2,20.6,32.2,41,48.3,61.6c2.9-2.5,5.7-4.9,8.5-7.2c7.8-6.5,15.7-13,23.4-19.7c0.6-0.5,0.8-3,0.2-3.7
			c-7.8-10.3-15.8-20.5-23.8-30.6c-8.8-11.3-17.7-22.5-26.6-33.7c-2.1-2.6-2.6-5.4-2-8.6c0.8-4.6,1.4-9.2,2-13.8
			c1.4-10.3,2.9-20.7,4.1-31c0.1-1.2-0.9-2.9-1.9-3.8c-1.2-1.2-2.9-1.8-4.4-2.7c0.1-0.4,0.1-0.7,0.2-1.1c1.6-0.3,3.3-1.2,4.7-0.6
			c3.2,1.2,5.5-0.7,8.1-1.7c1.1-0.4,2.1-0.9,3.2-1.4c2.4,5.6-3.3,6.7-4.3,10.3c2.5,3,4.9,6,7.4,9.1c5.1,6.3,10.3,12.6,15.3,19.1
			c7.4,9.5,14.6,19.1,22.1,28.6c6.8,8.6,13.7,17,20.5,25.6c1.1,1.4,2.7,3.4,2.5,4.9c-1.1,8.7-1.4,17.8-5.7,25.7
			c-0.6,1.1-0.5,2.6-0.8,4.5c1.2-0.6,1.5-0.7,1.8-1c9.9-9.4,19.7-19,29.7-28.3c9.3-8.6,18.7-17,28-25.5c0.8-0.7,2.2-2,2-2.4
			c-1.2-3.2-2-7.2-4.2-9.1c-8.3-6.9-17.1-13-25.7-19.4c-2.2-1.7-2.4-3.1-0.5-5.5c5.2-6.7,5.1-6.8,1.4-13.9c-0.1-0.2-0.4-0.3-0.8-0.7
			c-2.9,2.2-6,4.4-9,6.6c-2.9,2.1-3.4,5.8-1.3,8.8c2.8,4,5.6,8,8.2,12.2c0.7,1.2,0.8,2.8,1.1,4.2c-0.3,0.1-0.7,0.2-1,0.4
			c-3.4-5.4-6.9-10.7-10.1-16.2c-3.3-5.9-2.8-7.3,2.6-11.3c2.7-2,5.4-4.1,8.7-6.7c-3-2.1-5.7-5.5-7.9-5.2c-4.5,0.7-5.8-3.2-8.6-4.9
			c-1.5-0.9-2.7-2.5-4-3.9c-3.1,2.8-6.3,5.2-9,8c-2.4,2.5-4,1.4-5.5-0.9c-4.7-7.3-9.4-14.6-14-21.9c-5.8-9.3-5.8-9.3,2.7-16.9
			c-9.4-14.2-18.7-28.4-28.1-42.6c0.2-0.3,0.4-0.6,0.6-0.9c1.4,1,3.1,1.8,4,3.1c2.6,3.7,5,7.5,7.2,11.5c1.5,2.8,3.1,2.9,5.2,1.2
			c4.6-3.7,9.1-7.4,14-11.3c-1.9-2.7-3.6-5.3-5.6-7.6c-1.7-2-1.4-3.6,0.3-5.3c4.4-4.4,9-8.7,13.1-13.5c4.1-4.8,9-6.6,14.9-6.7
			c3.2,0,4.8,1.3,5.9,4.3c3.6,9.7,7.2,19.3,10.8,29c2.3,6.1,2.3,6,8.3,5.3c1.3-0.2,2.6-0.3,4-0.3c5,0.1,10,0.2,15,0.3
			c1.2,0,2.4-0.9,3.5-0.6c5.7,1.7,11.1-0.3,16.5-1.5c5.1-1.2,10.1-3.7,15.3-4c13.1-0.8,26.2-0.7,39.3-1c3.1-0.1,6.1,0,9.2-0.5
			c9.3-1.5,18.6-2.7,27.7-5.2c9.5-2.6,19-5.8,27.9-9.9c7.8-3.6,14.8-9.4,22.5-13.4c12.8-6.7,25.1-14.2,36.7-22.9
			c9.9-7.4,19.6-15,29.3-22.6c5.3-4.2,10.4-8.6,16-13.4c-1.9-0.1-2.9-0.2-4.1-0.3c7.6-5.9,7.6-5.9,9.1-3.8c1.9-2.7,3.6-5.3,5.6-7.7
			c1.3-1.6,2.8-3.2,4.5-4.4c5-3.6,10.4-6.6,15.3-10.6c10-8.1,19.9-16.4,29.5-25.1c6.6-6,12.6-12.7,18.9-19.1c37.4,0,74.8,0,112.3,0
			c-0.2,1.1-0.1,2.4-0.6,3.3c-2.2,4.1-4.3,8.3-7,12.1c-1.2,1.7-2.7,4.2-5.9,3c-1.8-0.7-7,5.5-6.8,7.8c0.3,3.5,0.8,7,1.2,10.6
			c3-0.3,3.6,1.6,3.2,4.2c-0.3,1.8-1.1,3.4-1.3,5.2c-0.5,3.6-0.7,7.3-1.1,10.4c3.8,0,6.9-0.1,10,0c6.6,0.2,13.2,0.6,19.8,0.8
			c0.8,0,2.1-0.1,2.4-0.7c2.8-5.2,5.2-11,3.9-16.8c-1.4-6.2,0.1-11.5,2.1-16.7c3.1-7.9,7-15.5,10.6-23.2c69.3,0,138.6,0,207.9,0
			c2.2,4.2-0.7,7.5-2,11.2c1.1,0.2,1.7,0.5,2.4,0.5c4.1,0.3,6.1,2.6,5.4,7c-0.5,3-1.6,5.8-2.4,8.7c-0.4,1.4-0.9,2.8-1.6,5.3
			c2-0.8,3.1-1,4-1.6c4.7-3.6,8.7-2.7,11,2.8c2.8,6.7,5.7,13.1,11.1,17.9c2.7,2.3,6,2.9,8.4,1.2c1.8,2.7,3.6,5.3,5.4,8
			c4.8,7,5.2,15.6,7.2,23.6c1.6,6.4,3.7,12.8,6.4,18.6c1.8,3.9,7.2,5.2,7.6,10.6c6.1,5.8,12,11.8,18.3,17.2c2.6,2.3,3,3.9,0.9,6.6
			c-3.3-1.9-6.4-3.8-9.6-5.6c4.4,3,7.3,7,8.9,12.4c0.4,1.6,1.3,3,2.1,4.4c3.1,5.2,6.5,10.2,9.5,15.5c2.3,4,3.6,8.9,6.3,12.5
			c5.5,7.2,11.6,13.9,17.5,20.8c2.5,2.9,5,5.8,7.3,8.8c0.5,0.7,0.7,1.9,0.9,2.8c1,4.8,1.5,9.7,5,13.9c0.6-2.4,1.1-4.5,1.6-6.5
			c0.3-0.1,0.6-0.3,1-0.4c1.8,2.9,4.7,5.6,5.3,8.8c1.8,9.9,3.9,19.8,3.2,30c-0.1,1.6,0.4,3.3,0.6,4.9c2.2-0.9,3.8-1.5,5.1-2.1
			c-1.5-10-1.2-20.1,0.9-30.3c2.3,2.1,4.4,3.6,6.1,5.6c2.2,2.4,4.3,5,6,7.8c1.8,3,2.5,6.8,4.5,9.5c2.2,2.8,5.4,4.6,8.2,6.7
			c0.5,0.4,1.4,0.2,2.2,0.2c9.6-0.1,8.8-1.9,13.6,7.6c0.9,1.7,1.6,3.5,2.5,5.2c0.5,0.9,1,1.7,1.7,2.5c1.9,2.3,4,4.3,5.7,6.8
			c3.3,4.7,5.6,10.7,9.7,14.2c3.9,3.4,5.9,7.2,7,11.9C1843.6,312.3,1847.8,315.6,1854.1,316.2z M860.6,669.2c-0.3-3.4-2.1-3-4.2-2.7
			c-2.3,0.4-4.8,0.7-7.1,0.4c-1.2-0.1-2.8-1.5-3.2-2.7c-2.1-5.4,0.5-13.1,5.2-16.1c2.2-1.4,2.9-3.4,2.1-5.8c-1-2.8-2.3-5.5-5.8-5.2
			c-1.7,0.2-3.4,0.2-4.6,0.3c-1.4,1.2-2.5,2.2-3.6,3.2c-0.1-0.3-0.3-0.5-0.4-0.8c1.1-2.1,2.2-4.2,3.6-6.9c0.9-0.2,2.6-0.7,4.3-1.1
			c-0.7-2.7-2.3-5.3,0.6-7.8c0.6-0.6,0.3-2.7,0.1-4.1c-0.2-1.5-1.1-3.1-1-4.5c0.1-2.7,0.8-5.3,1.3-8.5c-2.7,0.6-5.9-1.5-7.4,2.3
			c-3.1,8.3-10.1,12.5-15.9,17.9c-1.9,1.8-3.9,1.7-5.2-1.2c-0.4-0.8-0.9-1.5-1.5-2.5c-2.9,2.3-5.6,4.6-8.4,6.7
			c-2.1,1.6-1.6,3.4-0.8,5.3c0.5,1,1.4,1.7,2.2,2.7c-3.2,2.9-6.3,5.6-9.2,8.2c6,8.2,11.7,16,17,23.2c2.7-0.3,4.9-0.5,7.1-0.7
			c0.1,0.3,0.1,0.5,0.2,0.8c-1.6,0.8-3.2,1.7-5,2.6c1.9,2.4,3.4,4.4,5.1,6.6c2.2-2.3,4-4.2,5.9-6c0.2,0.2,0.4,0.4,0.6,0.6
			c-1.3,1.8-2.6,3.7-3.8,5.5c0.1,0.1,0.2,0.2,0.2,0.3c2.2-2.5,4.4-4.9,6.6-7.4c0.5,0.3,1,0.6,1.5,0.9c-0.3,1.7-0.5,3.3-0.9,6
			c3,4.7,5.3,11.5,10.8,15.6c0.6,0.4,1.4,0.6,2.1,0.6c2.9-0.2,5.8-1,8.5-0.6c2.4,0.4,4.6,2.2,6.8,3.3c4.7-7.7,7.5-16.2,9.4-23.9
			c-4.2-2.4-7.6-4.4-11.4-6.6C862.5,667.6,861.8,668.2,860.6,669.2z M799.5,550.5c3.1-4.4,5.2-8.3,8.1-11.3
			c4.4-4.4,7.1-11.7,2.7-17.5c-1.5-2-2.7-4.6-3.4-7.1c-1.4-4.9-4.1-6.8-8.7-5.4c-1.3,0.4-2.5,0.8-3.7,1.2
			c-9.5,3.3-18.9,6.6-28.4,9.9c-2.4,0.8-3.1,2.7-3.5,5.2c-0.7,4.2-1.7,8.3-2.4,12.4c-0.2,0.9-0.1,2.1,0.4,2.8
			c2.4,3.8,5.2,7.4,7.3,11.4c1.6,3.1,3.3,3.1,6.1,2.2c6.3-2.1,12.4-5.5,19.4-4.5C795.7,550,798,550.3,799.5,550.5z M772.6,558
			c2.8,2.8,3.6,7.3,8.2,5.9c0.4-0.1,1.2,0.4,1.4,0.8c1.5,4.2,3.2,8.3,4.4,12.6c1.6,5.9,2.5,12,4.4,17.8c2.2,6.5,3.4,6.6,8.4,2.4
			c0.9-0.8,1.9-1.6,2.9-2.3c1.9-1.3,2-3,1.4-5.2c-2.6-9.7-4.5-19.6-4.1-29.8c0.1-2.1,0.4-4.2,0.7-6.9
			C790.9,555.2,781.6,553.5,772.6,558z M783.3,509.3c7-1.8,14.3-3.6,22-5.6c1-5,2-10.8,3.2-16.8c-7.1,1.9-7.1,1.9-9.3-4.5
			c-2.5,1.3-3.7-0.1-4.6-2.4c-0.5-1.1-1.3-3.1-1.8-3.1c-3.2,0.3-3.8-2.6-5.3-4.8c-3.4,9.7-4.7,19.2-3.5,29.2c0.8,0.2,1.6,0.4,3,0.8
			C785.6,504.9,784.4,507.2,783.3,509.3z M851.4,580.4c11.7,1.6,23.3,3.1,34.8,4.7c-0.3-1.3-0.8-2.1-1.5-2.1
			c-4.4-0.6-8.8-1-13.1-1.7c-1.2-0.2-2.9-0.9-3.4-1.9c-2.2-5.4-6.2-5.6-10.6-5c-0.7,0.1-1.4,0.3-2.5,0.5c4.5-5.4,0.3-10.4,0.9-15.5
			c-1.9,0-3.3,0.4-4.5-0.1c-2.6-1-3.2-0.1-3.5,2.8c-0.6,7.1-1.3,14.1-2.3,21.2c-0.7,5.2-0.8,5.4,4.4,5
			C850.5,585.7,850.9,583.3,851.4,580.4z M814.2,619.4c-3.1-7.9-6-15.1-8.8-22.3c-1.2,0.8-2.1,1.3-2.8,1.9
			c-4.5,3.7-5.8,6.2-3.5,10.4c2,3.6,2.4,5.8,0.1,9.4c-1.9,3,1.1,5.8,3,7.9c0.7,0.8,3.1,0.7,4.1-0.1
			C809.1,624.5,811.6,621.8,814.2,619.4z M856.5,556.4c1.6-13.3,3.2-26.7,4.8-40.2c-2.2-0.2-4.6-0.5-7.2-0.8
			c-1.6,13.6-3.1,27-4.6,40.4C852.1,556,854.2,556.2,856.5,556.4z M845,591.9c-0.8,4.9-1.4,9.2-2.1,13.5c1.7-0.3,3.5-0.6,5.5-0.9
			c1-3.3,2.1-6.7,3.3-10.6C849.5,593.2,847.3,592.6,845,591.9z M1684.7,136.8c0.2,0.4,0.5,0.9,0.7,1.3c2.7-1.7,5.4-3.5,8.1-5.2
			c-0.2-0.4-0.4-0.8-0.7-1.3C1690.2,133.4,1687.4,135.1,1684.7,136.8z"/>
		<path class="st0" d="M1216,814c-2.1-3.1-4.1-6.4-6.2-9.4c-4.7-6.8-8.2-14.1-9.3-22.6c3.3-0.7,5.8-0.3,8.1,2.9
			c4.6,6.3,9.6,12.2,14.5,18.3c1,1.3,2,2.5,3,3.8c0.5-0.4,1-0.8,1.4-1.2c-1.6-2.8-3.2-5.7-4.9-8.5c-2.1-3.3-3.9-6.8-6.5-9.7
			c-3.1-3.4-6.4-7.9-10.3-9c-8.7-2.4-12.9-9.6-17.2-16.6c-3.6-5.8-6.3-12.3-9.5-18.5c-1.4-2.7-2.7-4.4-6.4-3.6
			c-2.1,0.5-5.1-1.4-7.1-3.1c-3.2-2.8-5.6-6.6-6-10.2c-1.6-1.4-2.6-2.3-3.5-3.3c-1.3-1.5-2.4-3.3-3.8-4.5c-2.9-2.5-3.5-5.8-0.7-8.4
			c2.7-2.5,3.4-5.4,3.7-9.2c0.3-3.6,2.3-7,3.4-10.5c3.3-10.2,3.3-10,13.3-10.7c10.9-0.8,21.9-2,32.8-3c1-0.1,2.5-0.2,3.1,0.4
			c5.2,5.3,12.1,7,18.2,10.4c5.7,3.1,8.4,8.2,10.7,14c2.1-2.8,11-4.5,14.5-2.4c3.8,2.2,7.4,4.8,11.1,7.1c0.5,0.3,1.1,0.4,1.7,0.4
			c2.8-0.1,5.3,0.1,7.7,2.3c1.1,1,3.4,0.3,4.9,1c5.2,2.4,10.3,5.1,15.4,7.5c3.7,1.8,3.5,5.9,4.9,9c1.5,3.3,2.9,6.8,4.4,10.1
			c2.4,5.4,2.1,7.4-1.9,11.6c0.8,0.2,2,0.1,2.3,0.6c3.3,5.3,3.7,0.4,4.5-1.6c1.4-3.7,2.6-7.6,3.9-11.4c-0.4-0.2-0.8-0.3-1.2-0.5
			c-0.6,1.4-1.2,2.8-1.7,4.2c-0.3,0.1-0.6,0.1-0.9,0.2c-2.3-7.6-4.7-15.2-7-22.7c0.3-0.4,0.5-0.9,0.8-1.3c4.1,0.4,8.3,1.2,12.4,1.2
			c6.1,0,12.2-0.7,18.3-0.9c8.3-0.4,16.6-3,24.8-1.1c5.5,1.3,10.5,4.6,15.9,6.4c9.9,3.4,17.5,10.4,23.6,19
			c3.5,4.9,4.6,11.7,6.9,17.6c1.4,3.5,1,7.6,4.5,10.5c5.2,4.2,10.6,4.7,16.4,3.3c4.1-1,8.3-2.1,12.3-3.6c4.7-1.7,8.7,0.6,12.1,2.9
			c4.6,3.2,8.8,7.4,12.6,11.8c5.2,6.1,11.6,9,18.9,9.6c7,0.6,13,3.7,18.8,7.7c1,0.7,1.9,2.4,2.1,3.8c0.6,2.8,1.9,4.4,4.3,5.6
			c2.3,1.1,4.4,2.8,6.6,4.3C1412.5,814,1314.3,814,1216,814z"/>
		<path class="st0" d="M229.6,814c-3-2.6-6.1-5.1-6.8-9.8c-0.2-1.3-1.5-2.6-2.6-3.5c-12.4-10.3-24.9-20.3-37.2-30.8
			c-1.8-1.5-3-4.9-3.1-7.5c-0.1-5,0.4-10.2,1.3-15.1c0.5-2.5,2.1-4.8,3.6-6.9c9.9-14.1,19.9-28.1,30-42c2.4-3.3,5.3-6.1,8.2-8.9
			c2.6-2.4,6.1-1.4,8.2,0.3c5,4.2,9.4,9.2,14.3,14.1c-0.5,0.7-1.2,1.6-1.9,2.6c-0.7-0.6-1.2-1-1.8-1.5c-4.3-3.4-5.4-3.9-8.3,0.6
			c-5.4,8.3-10.7,16.7-16.3,25c-2.7,4-5.5,7.8-8.6,11.4c-6.3,7.1-5.3,15.4,2.6,20.1c0.3,0.2,0.6,0.4,1.2,0.9c-1.4,0.6-2.5,1-4.5,1.8
			c3.5,3.1,6.4,5.8,9.5,8.4c3.5,2.9,7.2,5.5,10.7,8.4c3.2,2.6,4.8,2.4,7.1-1.1c2-3.1,4-6.1,5.9-9.2c0.6-0.9,1-2,1.8-3.8
			c-5.5-1.5-10.7-2.9-16.2-4.4c1.2-3,2.7-6.4,4-9.9c0.5-1.3,1.1-3.3,0.6-4c-2.2-3-0.9-5.9-0.3-8.7c1.1-5.3,2.2-10.6,3.7-15.7
			c0.5-1.7,2-3.2,3.3-4.4c3.1-3,6.5-5.6,9.4-8.7c5-5.3,10.9-7.5,17.7-7.6c3,0,6,0,10.1,0c-1.1,2.9-2,5-3.1,7.9
			c1.4,4.1,5.7,5.8,9.6,2.7c3.2-2.5,6.4-1.9,8.3,2.3c1.1,2.4,2.5,3.2,4.7,2.8c4.8-0.7,8.4,1.5,11.8,5.1c2.9,3.1,1.7,6.8,2.6,10.2
			c1.8,6.6,3.7,12.9,10.5,15.4c0.4,0.2,1,0.3,1.3,0.6c2.7,2.9,5.4,5.9,8.6,9.4c-1.1,0.5-2.4,1.3-3.8,1.8c-2.3,0.9-4.7,1.3-6.9,2.4
			c-5.6,2.7-11.1,5.6-16.6,8.6c-5.1,2.8-9.4,10.8-5,16.6c1.5,2,2.2,4.8,3.2,7.3c1,2.3,2,3,4.3,1.4c8.5-6.1,16.8-12.5,23.7-20.6
			c0.8-0.9,1.7-2.1,1.7-3.2c0.3-5.7,3-10,6.8-13.9c0.7,1,1.4,2,1.8,2.5c-1.6,3-3.1,5.6-4.6,8.3c0.4,0.3,0.7,0.6,1.1,0.9
			c3.1-3,6.3-5.9,9.2-9c3.9-4.2,7.5-8.8,11.4-13c1.7-1.9,3.8-2.7,5.7,0.1c0.2,0.3,0.6,0.4,0.9,0.6c5.1,3.5,5.2,3.6,2.7,9.6
			c-3.5,8.3-7.6,16-15.7,20.4c-5.1,2.8-6,3.2-9.4-1.6c-0.6-0.8-1.1-1.6-1.8-2.7c-0.6,0.7-1.5,1.5-1.4,1.7c2.3,5.3-2.1,6.8-4.6,9
			c-4.9,4.4-10.3,8.3-15.4,12.5c-0.7,0.6-1.8,1.9-1.6,2.3c1.7,3.7-0.9,4.7-2.9,6.4c-1.5,1.3-2.8,2.8-4.3,4.3c-0.9-0.6-1.9-1.2-3-1.8
			c-1,0.9-2.1,1.9-3.2,2.8C277.9,814,253.7,814,229.6,814z"/>
		<path class="st0" d="M1662.2,814c0-1.6,0-3.3,0-5.2c1.2,0.2,1.7,0.4,2.2,0.4c5.1,0.5,8.7-2.6,9.3-8.3c0.3-2.8-3.6-5.6-6.7-4.8
			c-1.6,0.4-3.1,1.2-4.9,1.9c0,2.1,0,4.3,0,6.4c-0.4,0-0.9,0.1-1.3,0.1c-0.8-4.5-1.6-8.9-2.4-13.4c0.3-0.1,0.6-0.3,0.9-0.4
			c-1.3-0.9-2.6-1.7-3.6-2.4c1.4-9.5,2.8-18.8,4.3-28.1c0.7-3.9,4.2-6.8,7.9-6.7c1.2,0,2.4,0,3.6,0.1c3.4,0.2,5.7-1.8,5.8-5.5
			c0.1-1.7,0-3.4,0-5.3c2,0,3.7,0,6,0c-0.5,1.4-1,2.7-1.6,4.4c1.7,0.6,3.4,1.2,4.9,1.9c1.4,0.7,3.1,1.4,3.8,2.6
			c3.2,5.8,8.5,6.4,13.8,7.2c6.6,1.1,13.1,2.1,19.7,3.3c4.7,0.9,9,0.7,13.6-1c3.3-1.2,7.5,0,11.2,0.4c3.7,0.3,7.3,1.2,11,1.2
			c4.3,0,8.3,0.6,12.2,2.5c1.9,0.9,3.8,1.9,5.9-0.9c1-1.3,4.3-0.8,6.4-0.5c7.5,1.1,15,1.9,22.3,3.9c7.7,2.1,15.1,5.6,22.7,8.4
			c0.2,0.1,0.6,0.1,0.7,0.2c2.6,6.1,9.2,5.8,13,9.9c2.2,2.3,4.7,4.3,7.2,6.3c1.2,1,2.6,1.6,4,2.4c0,6.3,0,12.6,0,18.9
			C1790.1,814,1726.1,814,1662.2,814z"/>
		<path class="st0" d="M1854.1,121.9c-1.1-0.8-2.1-1.7-3.3-2.3c-2-1.1-3.4-4.5-6.4-2.5c-0.2,0.1-0.5,0-0.7-0.1
			c-4.7-2.7-9.4-5.4-14.1-8.1c-2.7-1.6-5.3-3.3-8.1-4.7c-2.3-1.3-4.3-2.6-5.7-5.3c-2-3.9-5.7-5.6-10.1-5.4c-0.1-1.5-0.1-2.7-0.2-4.1
			c3.7-1.7,7.1-1.7,10.7,0c2.3,1.1,5,1.5,7.6,1.7c2.9,0.2,5.5-0.7,6.3-4.3c0.6-2.5,1.8-3.5,4.1-2.1c0.8,0.5,1.8,0.8,2.7,0.9
			c5.3,0.3,7.4,4,8.2,9c0.8,5.4,1.8,10.9,2.4,16.3c0.4,4.5,3.5,6,6.5,7.7C1854.1,119.8,1854.1,120.9,1854.1,121.9z"/>
		<path class="st0" d="M1854.1,255.6c-3.5-4.2-7.1-8.4-10.5-12.5c3.8-7,7.1-13.4,10.5-19.7C1854.1,234.1,1854.1,244.9,1854.1,255.6z
			"/>
		<path class="st0" d="M1710.7,0c0.2,1.9,0.4,3.8,0.5,5.7c0.2,2.4-3.3,5.5-6.9,6.1c-0.8,0.1-1.7,0-3.2,0c0.3-1.6,0.2-3.8,0.9-4.2
			c3.4-1.6,2.7-4.8,2.8-7.7C1706.8,0,1708.8,0,1710.7,0z"/>
		<path class="st0" d="M1609.3,814c0.3-4.6-0.8-9.3,0.6-13.8c0.3,0,0.6,0.1,0.9,0.1c-0.3,4.6-0.6,9.2-0.8,13.7
			C1609.8,814,1609.5,814,1609.3,814z"/>
		<path class="st0" d="M568.4,347.4c-2.8,7-5.3,13-7.5,19.1c-3.7,10.4-7.9,20.7-10.7,31.5c-2.1,8.1-0.4,16.5,4.7,23
			c4.1,5.1,6.5,10.9,7.6,17.1c2.4,12.6,4.3,25.3,5.9,38.1c0.9,7,0.7,14.2,0.7,21.3c0,3,0.9,5.2,2.5,7.4c6.5,8.8,12.9,17.6,19.3,26.5
			c0.6,0.8,0.6,2,0.1,3.5c-1.9-2.5-3.9-4.9-5.7-7.5c-1.8-2.4-5.8-2.3-7.7,0.1c-0.6,0.8-1.9,1.9-2.3,1.6c-2.5-1.3-4,0.3-5.8,1.6
			c-2.5,1.8-5,3.5-8.4,3.6c-2.3,0-4.6,2.4-6.9,3.6c-9.2,4.7-18.6,9.3-27.7,14.2c-4.4,2.4-8.9,5.1-12.5,8.7
			c-13.5,13.1-26.6,26.6-39.9,40c-6,6-12.2,11.8-18,18c-7.6,8.2-15.1,16.5-22.3,25.1c-2.5,3-4.8,6.3-4.1,11.4
			c0.4,3.7-1.8,7.6-2.3,11.5c-0.6,4.2-0.5,8.4-0.8,13c-5,1-4,6.6-4.9,10.8c-0.9,4.2-1.3,8.6-2.1,13.7c-2.7-1.4-5.4-2.7-7.9-4.3
			c-2.2-1.4-4-0.8-5.9,0.8c-7.1,6.5-14.3,12.9-21.5,19.4c-2.6,2.4-5.5,3.6-8.5,1.2c-6.6-5.1-12.3-4.1-18.3,1.6
			c-3.1,2.9-7.6,4-11.2,6.4c-2.6,1.7-4.8,3.9-7.1,6.1c-1.4,1.4-2.6,3.2-5,1.3c1.5-3.6,2.7-7.4,4.4-10.8c5.2-10.2,7.1-21.6,9.8-32.6
			c1.7-7,4.1-13.8,5.2-20.8c2.3-14.3,9.1-26.8,13.6-40.1c6.7-19.7,13.9-39.2,20.8-58.8c2.5-7.2,4.9-14.5,7.1-21.8
			c1.7-5.7,2.9-11.6,4.7-17.3c0.8-2.4,2.9-4.2,4.3-6.4c5.9-9.1,12-18,17.6-27.3c6-9.9,13.5-18.2,21.7-25.9c3.3-3.1,6.1-6.7,9.3-9.9
			c9.6-10,19.3-20.1,29-29.9c10.4-10.4,20.8-20.8,31.4-30.9c8.1-7.7,16.8-14.6,24.6-22.5c5.1-5.1,9.5-11,13.5-17.1
			c1.6-2.4,1.2-6.2,2-9.3c0.3-1.1,1-2.5,1.8-2.8C559.2,350.8,563.3,349.4,568.4,347.4z"/>
		<path class="st0" d="M1480.6,765.1c2.2,1.8,3.7,3.7,5.7,4.7c8.2,3.9,8.3,11.5,7.7,20.5c-8.2-3.2-16.2-6.2-24.1-9.6
			c-1.5-0.6-2.2-3.1-3.6-4.2c-4.2-3.5-8.7-6.6-12.8-10.1c-5.4-4.5-11.8-5.4-18.2-5.6c-3-0.1-6,1.2-9,1.9c-1.6,0.4-3.2,1.1-4.9,1.3
			c-2,0.3-4.4,1.1-5.9,0.2c-4-2.2-6-5.9-6.2-11.2c-0.3-8.4-4.7-14.8-9.7-20.8c-2.5-3-5.7-5.2-8.2-8.2c-3.4-4.1-7.5-6.5-12.2-8.4
			c-5.6-2.1-11.2-4.3-16.5-7.3c-6.5-3.8-13.2-3.1-19.9-1.9c-12.7,2.3-25.3,2.2-37.9-0.2c-0.8-0.2-1.6-0.7-2.4-0.6
			c-7.8,1-14.8-2-21.9-4.6c-11.3-4.2-22.7-7.9-34-11.9c-1.9-0.7-3.5-2-5.4-2.9c-6-3-11.9-6-17.9-9c-0.3-0.2-0.6-0.4-0.9-0.5
			c-4.1-2.4-8.1-5.2-12.3-7.2c-2.1-1-4.8-0.5-7.4-0.7c-1.8-6.9-3.2-8.1-10.9-8.8c-0.9-0.1-2-0.5-2.4-1.2c-2.8-4.2-5.9-8.2-7.9-12.8
			c-1.2-2.8-1.7-7.1-0.6-9.8c3.5-8.7,3.4-17.7,3.3-26.8c0-0.5,0.1-1,0.3-2.6c1.7,2.7,2.9,4.6,4.3,6.9c2.2-0.1,4.8-0.3,7.3-0.4
			c-2.2-7.5-9.1-12-8.4-20.6c-1.5-0.1-2.9-0.2-4.3-0.3c0-0.2-0.1-0.4-0.1-0.6c3.2-0.8,6.3-1.9,9.5-2.4c6.3-0.9,12.4-0.6,18.4,2.6
			c4.8,2.6,9.8,4.5,14.8,6.6c2.6,1.1,5.1,1.4,8.1,0.5c4.7-1.5,9.4,0.3,13.9,2.1c11.8,4.7,23.7,9.1,35.5,13.9
			c4.7,1.9,9.1,4.6,13.6,6.9c12.5,6.3,25,12.6,37.6,18.8c11.5,5.7,23.3,10.9,34.6,17.1c8.3,4.5,16.8,6.1,26,5.6
			c2.6-0.1,5.4,1.3,8,2.4c2.4,1,4.6,2.7,7,3.7c4.6,1.8,9,3.7,12.8,7.3c2.4,2.3,4.9,2.4,8.2,0.8c11.4-5.6,20.4-4.2,30.4,5.7
			c2.9,2.9,6,5.6,9,8.2c2.9,2.5,3.6,5.9,4.1,9.6c0.6,4.2,1.4,8.4,2.2,12.5c0.2,0.8,1.1,1.3,1.5,2.1c0.5,1.1,1,2.2,1.4,3.4
			c1.1,3.5,1.7,7.3,3.2,10.5c0.6,1.3,3.4,1.9,5,1.8c3.3-0.3,7.4,1.9,8.3,5.3c0.2,0.6-0.1,1.3-0.2,1.9c-0.6-0.3-1.6-0.4-1.7-0.8
			c-1.4-4.3-4.4-3.6-7.1-2.5c-2.3,0.9-3,5.7-1.4,9c2,4,3.2,8,1.7,12.6c-0.3,0.9-0.2,2-0.1,2.9c0.4,4.9-0.4,5.8-5.1,5.2
			C1482,764.5,1481.5,764.8,1480.6,765.1z"/>
		<path class="st0" d="M1546.7,774.6c-6.2,5.2-12.3,0.8-18.3,0.4c-1.2-0.1-2.5-3.3-3.1-5.3c-0.8-2.7-1.1-5.6-1.6-8.3
			c-0.4,0.1-0.9,0.2-1.3,0.2c0.4,2.6,0.7,5.3,1.1,7.9c-5.7,1.3-8.5,0.2-10.1-4.1c-0.3-0.9-0.1-3,0.3-3.2c2.4-0.9,2-2.9,2-4.8
			c0-2.4,0.1-4.7,0-7.1c-0.2-2.4,1.1-5.3-1.9-6.9c-0.3-0.2-0.2-1.2-0.2-1.9c0-9.4-0.7-19,0.3-28.3c0.5-4.6,4-8.8,6.5-13
			c0.5-0.8,2.7-0.3,4.1-0.5c7.2-1.3,14.1-1,21.1,2c5.7,2.4,11.9,3.3,17.8,5.2c2.4,0.8,4.6,2.5,6.6,4.2c6.4,5.7,12.8,11.3,18.8,17.4
			c3,3.1,5.2,7.3,7.6,11.1c2.4,3.8,5,7.5,6.9,11.6c3,6.6,8.2,12.1,8.9,19.9c0.1,0.6,0.3,1.5,0,1.9c-2.3,3-0.3,5.4,1.1,7.5
			c3.8,5.5,1.6,10.7-1,15.5c-2.4,4.5-6.8,3.8-10.8,3.7c-4.2-0.1-7.9-1.7-11.6-4.1c-6-3.9-12.4-7.1-18.7-10.2c-1.4-0.7-3.4,0-5.1,0.4
			c-3,0.7-5.8,0.2-7-2.7c-2-4.7-5.4-4.1-8.9-3.9C1547.1,779.7,1545.4,778.9,1546.7,774.6z"/>
		<path class="st0" d="M1199.9,667.5c-1.4,0.7-2.4,1.3-3.7,2c-1.2-5.7-4.6-4.1-8.1-2.9c0.3,4.3-2.1,5-5.6,5.2
			c-12.4,0.6-24.8,1.5-37.3,2.1c-0.7,0-1.9-0.5-2-1.1c-1.4-5.1-4.4-4.6-7.8-2.9c-0.4,0.2-0.9,0.3-1.5,0.4c-0.1,1.2-0.2,2.5-0.4,4
			c-1.2,0.5-2.5,1.1-3.8,1.7c-2.3-4.4-1.1-7.6,3.3-8.8c5.2-1.5,5-1.3,2.5-6.6c-1.3-2.8-1.6-6.1-2.6-9.1
			c-5.8-17.9-11.7-35.7-17.3-53.5c-2.3-7.3-4.5-14.7-6.1-22.2c-1.2-5.6-1.7-11.5-2-17.2c-0.1-1,2.3-3.3,3.3-3.2
			c4.5,0.8,9.1,1.8,13.4,3.5c12.7,4.9,25.3,10.3,38,15.3c3.4,1.3,5.4,3.2,6.4,7.3c2,8.2,4.6,16.1,7,24.2c2.7,9.1,1.8,17.9-1.1,26.8
			c-1.5,4.8-2.1,9.7-0.6,15.1c2,6.9,7,11,11.3,15.7c1,1.1,4.3,0.1,6.4-0.4C1196.9,661.4,1197.2,661.4,1199.9,667.5z"/>
		<path class="st0" d="M1194.6,485.5c3.3,1.5,6.5,3,9.8,4.4c2.3,1,3.9,2.2,3.1,5.5c-0.3,1.1,0.5,3.5,1.3,3.8c3.3,1.4,2.5,4.5,2,6.6
			c-0.5,1.8-2.6,3.5-4.4,4.5c-1.1,0.6-2.8,0-4.2-0.3c-3.9-0.9-7.8-1.8-11.6-2.8c-0.4-0.1-1.1-0.4-1.3-0.2c-5,4.2-8.3-0.3-12-2.8
			c-1-0.7-2.2-1.4-3.4-1.5c-2.2-0.3-4.5,0.4-6.5-0.4c-3.8-1.4-7.3-1.3-11.2-0.8c-3.6,0.5-7.5-0.8-11.2-0.5
			c-4.4,0.4-7.6-1.4-10.3-4.8c-0.5-0.6-0.9-1.2-1.2-1.9c-1.6-3.3-3.6-6.4-4.5-9.8c-1.2-5-2.2-10.3-2-15.3c0.2-3.9,3-4.9,7.8-4.1
			c0.1,1.2,0.2,2.5,0.3,4.1c3.2-2.1,4.8-0.5,6.6,2.3c2.3,3.5,2.8,3.3,5.4-0.2c2-2.7,7.2-1.2,9.2,2.5c6.8-3.6,13.6-7.2,17.8-14.7
			c0.2,0.2,0.4,0.5,0.7,0.7c-1.4,3.6-2.7,7.3-4.2,11.2c0.9,1,1.9,1.9,2.9,3c2.2-1.2,4.3-2.3,6.4-3.5c3.9-2.1,8.1-0.3,10.1,4
			c1.1,2.3,2.7,4.2,3.7,6.5C1194.3,482.3,1194.3,483.8,1194.6,485.5z"/>
		<path class="st0" d="M1093.6,536.9c-1.9,0.2-3,0.4-4.2,0.5c-0.5,6,2.5,13.1-5,16.9c0-1,0-2,0.1-3c0.9-4.4-1.6-11.3-5.2-13.4
			c-0.6-0.3-1.7,0.1-2.4,0.5c-2.3,1.3-4.5,2.7-6.7,4c-0.9-2.2-1.7-4.1-2.5-6c-0.5,0-0.9,0-1.4,0.1c-0.3,2-0.7,4.1-1.1,6.6
			c-4.8,2.2-0.6,6.6-1.2,10.2c2.3,0.3,4.3,0.7,6.3,1c-2.3,4.4-4.5,8.3-6.2,12.3c-1.4,3.2,0.5,6.1,2,8.7c3.3,5.7,8.4,5.9,13.8,5.1
			c0.7-0.1,1.3-0.5,2-0.7c6-1.5,6.8-2.5,7.2-9.3c0.1-0.9,0-1.9,0.2-2.7c0.1-0.7,0.6-1.3,1-2.2c0.4,6.1,1.2,12,0.9,17.9
			c-0.3,5.4-3.7,9.1-8.1,11.4c-5.5,2.8-11.1,4.9-17.2,1.6c-1.7-0.9-4-0.8-3-4.3c0.3-1.1-1.2-3-2.2-4.2c-5.1-6.1-7-13-5.1-21.1
			c0.2-1-0.6-2.4-0.9-3.6c-0.7-2.4-1.5-4.7-2.3-7.1c0.3-0.2,0.6-0.5,0.9-0.7c0.9,0.5,1.7,0.9,2.9,1.6c-1.4-4.4-2.8-8.4-4.2-12.8
			c1.9-0.5,3.4-0.5,3.6-1c2.1-6,7.9-6.7,11.6-10.3c4.5-4.3,17.9-4.6,21.5-1.7C1090.5,532.4,1091.7,534.5,1093.6,536.9z"/>
		<path class="st0" d="M1309.4,498.8c2-3.3,4.1-7.1,6.4-10.8c1.1-1.8,2.5-4.9,3.8-4.9c3.2-0.1,6.5,0.9,9.6,2c1.8,0.7,3.2,2.7,5,3.6
			c2.5,1.3,2.4,2.8,0.7,5.4c-3.5-1.6-7.1-3.4-10.8-5.1c-3,4.3-3.1,4.4,1.6,6.9c4.8,2.5,9.9,4.7,15.8,7.4c-0.7,4.4-1.6,10.1-2.6,16.1
			c-0.4-1.1-1.1-2.1-1.1-3c0.1-5.6-3.8-7.2-7.4-9.1c-4.3-2.2-8.5-4.4-12.9-6.3C1315,500,1312.3,499.6,1309.4,498.8z"/>
		<path class="st0" d="M1735.1,122.5c0.3-1.6,0.6-2.8,0.7-4.1c0.3-2.5,1-4.9-1-7.2c-0.8-1-0.8-2.9-0.9-4.4c-0.2-2.8-0.2-5.7-0.5-8.5
			c-0.6-6.6-5-10.4-9.7-13.3c-1.8-1.2-4.6-0.7-7-0.7c-3.7,0-7-0.8-9.8-4.4c6-1.2,11.4-0.1,16.7,2.3c2,0.9,4,2.3,6.1,2.7
			c7,1.1,12,4.5,14.8,12c3.1,8.3,7,16.4,10.4,24.6c0.4,1.1,0.1,3-0.6,3.9c-0.7,0.9-2.3,1.5-3.4,1.3
			C1745.8,125.4,1740.7,124,1735.1,122.5z"/>
	</g>
</g>
<g id="home">
	<circle class="st1" cx="1184" cy="316" r="12.5"/>
</g>
<g id="food">
	<g>
		<circle class="st1" cx="758" cy="662" r="12.5"/>
	</g>
</g>
<g id="tea">
	<circle class="st1" cx="786.5" cy="675.5" r="12.5"/>
</g>
<g id="toFood">
	<g>
		<g>
			<g>
				<g>
					<g>
						<path class="st2" d="M1183.5,317.2c0.3-0.1,0.1-0.3-0.7-0.2l-0.6,0.3L1183.5,317.2z"/>
						<path class="st2" d="M1177.6,316.6c-1,0.2-2.2,0.5-1.6,0.8c1-0.3,1.3-0.2,2.4-0.6c0.9,0,1.5,0.1,1.4,0.2
							c0.3-0.1,1.4,0.1,1.8-0.2c-1.1-0.2-2.6-0.2-4.1,0C1177.2,316.8,1177.5,316.7,1177.6,316.6z"/>
						<path class="st2" d="M1091.7,324.1l0.6-0.1C1092.1,324,1091.9,324.1,1091.7,324.1z"/>
						<path class="st2" d="M1039.6,336c0.4-0.1,0.5-0.2,0.6-0.2C1039.8,335.9,1039.5,336,1039.6,336z"/>
						<path class="st2" d="M1030.8,338.3c0.2-0.1,0.3-0.1,0.5-0.1C1031.1,338.2,1030.9,338.3,1030.8,338.3z"/>
						<path class="st2" d="M1091.7,324.1l-1.4,0.1C1090.2,324.4,1091,324.2,1091.7,324.1z"/>
						<path class="st2" d="M1165.7,317.7c0.3,0,0.5-0.1,0.8-0.1C1166.2,317.6,1166,317.6,1165.7,317.7
							C1165.7,317.6,1165.7,317.7,1165.7,317.7z"/>
						<path class="st2" d="M1115,320.2l0.4-0.1c0.1-0.1,0.2-0.1,0.3-0.2L1115,320.2z"/>
						<path class="st2" d="M1133,318.1c-0.4,0-0.5,0.3-0.7,0.5c0.2-0.1,0.5-0.2,0.9-0.3C1133.2,318.3,1133.1,318.2,1133,318.1z"/>
						<path class="st2" d="M1161.6,316.7l0.5-0.1C1162,316.6,1161.8,316.6,1161.6,316.7z"/>
						<path class="st2" d="M1102.1,322c0,0-0.1-0.1-0.2-0.1C1102,322,1102,322,1102.1,322z"/>
						<path class="st2" d="M759.6,641.7C759.6,641.6,759.6,641.7,759.6,641.7C759.6,641.8,759.6,641.8,759.6,641.7z"/>
						<path class="st2" d="M757.4,662.5l0-0.3c-0.1,0-0.1-0.1-0.2-0.1L757.4,662.5z"/>
						<path class="st2" d="M1014.7,343.2C1014.8,343.2,1014.8,343.2,1014.7,343.2C1015.2,343,1015,343.1,1014.7,343.2z"/>
						<path class="st2" d="M881,417.3c1.5-0.9-2,2.1,0.2,0.6C880.9,418,882.7,416.1,881,417.3z"/>
						<path class="st2" d="M1165.2,317.7c-0.2,0-0.5,0-0.7,0C1164.8,317.7,1165.1,317.7,1165.2,317.7z"/>
						<path class="st2" d="M881.2,417.9L881.2,417.9l0.2-0.2C881.3,417.8,881.3,417.9,881.2,417.9z"/>
						<path class="st2" d="M978.9,357.6c0.1,0,0.2,0,0.4-0.1C979.3,357.5,979.2,357.5,978.9,357.6z"/>
						<path class="st2" d="M1005.7,347.1l-0.7,0.2C1005.3,347.2,1005.5,347.2,1005.7,347.1z"/>
						<path class="st2" d="M965.6,364.2c-0.4,0.1-0.5,0.2-1,0.4c0.1,0,0.1,0,0.2,0C965,364.5,965.2,364.3,965.6,364.2z"/>
						<path class="st2" d="M951.7,371.2c0.1,0,0.2-0.1,0.3-0.1c0.1-0.1,0.3-0.2,0.4-0.2L951.7,371.2z"/>
						<path class="st2" d="M766.7,595.4c-0.2,0.3-0.3,0.5-0.4,0.6C766.6,595.9,766.1,598.1,766.7,595.4z"/>
						<path class="st2" d="M1165.7,317.5c-0.1,0.1-0.2,0.1-0.5,0.1c0.2,0,0.3,0,0.5,0C1165.8,317.6,1165.8,317.5,1165.7,317.5z"/>
						<path class="st2" d="M966,366.5l-2.2,1C964.4,367.2,965.2,366.8,966,366.5z"/>
						<path class="st2" d="M812,495l-0.3,0.5C811.8,495.4,811.9,495.2,812,495z"/>
						<path class="st2" d="M957.3,370.8c-0.4,0.1-0.9,0.3-1.3,0.5c-0.1,0.1-0.2,0.1-0.2,0.2L957.3,370.8z"/>
						<path class="st2" d="M766.3,596C766.3,596,766.3,596,766.3,596C766.3,596,766.3,596,766.3,596z"/>
						<path class="st2" d="M763.6,612c0.4-2.3-0.2-1.1-0.3-1.7c0.4-2.8,0.5-1.2,0.9-2.1c0.3-1.7,0.2-3.1,0.5-4.4
							c0.1-0.1,0.2-0.3,0.2,0c0-1.9,1.2-5.3,1.3-7.5c0.1-0.1,0.1-0.2,0.2-0.3c-0.3,0.3-0.5,0.3-0.6,0.2c0.2-1,0.2-2,0.5-2.3
							c-0.2,0.6-0.1,0.7-0.1,1l0.2-1.1c0.6-0.9-0.2,1.5,0,1.5c0.4-2.1,0.7-4.6,1.3-6.2c0.4-0.2-0.9,3.7,0,1.7
							c-0.3,0.8-0.5,1.6-0.8,2.4c1-1.8-0.4,1.5,0.6-0.1c0.9-3.2,0.8-3.6,1.7-6.8c0-0.8-0.3,0.2-0.3-0.6c1-4.7,1.9-3.3,2.4-6.8
							c0.1-0.9-0.3-1.4,0.7-3.7l0.1,0.9c1.1-3.1,0.1-1.9,1.4-5.1c0,0.6-0.7,2.5-0.5,2c1-2,0.3-1.5,0.8-3.1l0.4-0.2
							c0.5-1.6,1.1-3.4,1.6-5.1c0.6-1.8,1.1-3.6,1.8-5.4c0,0.2-0.1,0.9,0.3,0.1c0.8-2.3,1.8-4.6,2.8-7c1-2.3,2.2-4.6,3.2-6.7
							l0.4-1.7c0.2-0.4,0.4-0.6,0.3-0.2c0.9-1.6-0.1-0.2,0.1-1c0.4-0.9,0.7-1.2,0.5-0.5c0.6-1.5,1.4-3.6,2.3-5.7
							c0.9-2.1,2-4.1,2.9-5.6l-0.2,0.6c1.3-2.3,0.8-2.9,2.2-4.9l-0.2,0.4c1.4-2.5,2.8-5.1,4.2-7.6c1.4-2.4,2.8-4.7,4-6.5
							c0.1-0.9,3.1-4.7,2.8-5.3c1.9-2.6,1.5-1.8,4.2-5.5c0.7-1,0.7-1.7,1.5-3l0.3,0.1c0.3-0.6,0.6-1.3,0.9-1.9l0.9-0.7l0.7-1.2
							c-0.3,0.5-0.8,0.9-0.8,0.8c1.1-1.9,3.2-4.3,3.4-4.3c0.9-1.5,1.9-2.9,2.8-4.4c0,0.2-0.4,0.9-0.8,1.5c1.4-2.4,0.6-0.2,1.8-2.5
							c-0.3,0.2,0-0.3-0.1-0.3c0.9-0.9,2.6-3.3,3.9-5l-0.1,0.5c1.2-1.5,2.4-3.2,3.7-4.8c1.3-1.7,2.6-3.4,4-5
							c-1.1,1.1-1.1,0.6-0.3-0.4l0.6-0.2c0.4-0.8-0.9,1-0.1-0.5c1.1-1.2,1-0.6,0.5,0.2c0.4-0.5,0.8-1.1,1.2-1.6
							c0.2,0-0.1,0.4-0.1,0.5c0.4-0.7,2.5-2.4,3-3.5l0.1,0c2.8-3.3,4.1-4.8,6.4-7.5c-0.2-0.2,0.8-1.2,1.3-2.2c1.8-1.9,4-3.8,6.1-6.1
							c1.4-1.7,0.3-0.6,0.8-1.5c0.3,0.1,2.5-2.2,1.5-0.9c2.6-2.7,3.3-3.5,6.6-6.9c-0.4,0.3-0.9,0.7-0.7,0.4c0.6-0.6,1.5-1.3,1.5-1.1
							l-0.1,0.2c3.6-4,9.5-7.9,12.3-11.1l-0.2,0.2l3.1-3.1c1.6-1.3-0.8,0.9,0.4,0.1c0.8-0.9,1.6-1.6,2.3-2.3
							c0.7-0.6,1.5-1.2,2.2-1.8c1.4-1.1,2.7-2.1,4.1-3.5c2.8-1.3,8.4-6.8,12-8.8l-0.3,0c0.7-0.8,1.1-0.7,1.7-1.1
							c-0.2,0-1,0.6-0.5,0.1c7-5.6,15.1-10.7,22.9-15.5c2.9-1.8,1.1-1.9,4.9-3.7l-0.8,0.9c2.8-1.9,5.7-3.8,8.7-5.6
							c3-1.7,5.9-3.5,8.7-5.3c-0.3,0.3-0.3,0.4-0.8,0.7c1.3-0.5,4.5-2.5,4.5-2.7c0.9-0.5,0.3,0,0.9-0.2c1.3-0.6,2.9-2,3.7-2.1
							c0.1,0-0.3,0.3-0.5,0.4c0.8-0.5,3.8-2,2.9-1.8c2.3-1.1,4.1-2.4,6-3.1c1-0.9,3.9-1.8,4-2.4c0,0.5,4.1-1.7,5.4-2.5
							c-0.4,0.4,1.3-0.5,0.8,0c1.6-0.8,3.1-1.6,2.7-1.6c3.2-1,5.9-3.2,7.9-3.4c2.4-1.2,4.7-2.4,7-3.4c2.3-1.1,4.5-2.1,6.7-3.1
							c0,0.5-4.9,2.1-4.5,2.5c4.1-2,6.4-3.3,10.7-4.9c1.1-0.4-0.5,0.4-0.9,0.7c4.1-1.9,8.2-3.1,11.9-4.8c0,0-0.4,0.2-0.8,0.4
							c0.7-0.3,1.8-0.6,1.6-0.8l-0.7,0.3c-1.3,0.2,2.8-1.7,2.9-1.9c-1.1,1,3.8-1.2,2,0.2c0.5-0.2,1.1-0.5,0.9-0.6
							c0.8-0.2,1-0.2,0.3,0.2c2.7-1.1,1.6-0.9,4.1-1.8c0,0.1-0.5,0.3-0.7,0.5c1.2-0.6,2.4-1.2,4.5-1.8c-0.1,0.1,0.2,0.1-0.5,0.3
							c3.6-1.2,5.9-2.5,10-3.6c-1,0.8,1.4-0.3,1.7,0l2.1-0.8l-0.9,0.1c1.9-0.6,3.4-1.3,5.1-1.7l-1.3,0.5l3.5-1.1l-2,0.4
							c1.8-0.7-0.3-0.4,2.2-1c-0.5,0.2,1.9-0.5,2.9-0.6l0,0c0.9-0.4,1.8-0.8,3.2-1.1c0.4,0-0.2,0.5,0.1,0.5c0.8-0.5,4.4-1.2,5.5-1.9
							c-0.4,0.2-0.3,0.4-0.2,0.4l0.7-0.4c0.9-0.2,1-0.1,0.9,0c2.6-0.6-1-0.2,2.2-0.9c-0.2,0.1-0.1,0.1-0.6,0.3c3.2-0.7,6-1.6,9-2.2
							c0.9,0.2-2.5,0.7-1.5,0.8c2.1-0.6,4.2-1.1,6.3-1.7c2.1-0.6,4.3-1.1,6.3-1.5l-0.8,0.1c0.5-0.7,3.1-0.4,5.1-1
							c-0.5,0.1-0.6,0.4-0.5,0.3c2.8-0.4,5.7-1.3,9.9-2.2l-0.5,0.2c1.7-0.2,4.4-0.7,6.2-1c0.5-0.2,1.5-0.4,0.9-0.5
							c2.8-0.1,5.4-0.6,8-1.1c2.5-0.5,5-1,7.5-1c-0.6,0.1-1.4,0.3-0.9,0.2l4.2-0.7c-0.4-0.2-0.6-0.1-1.5-0.1
							c0.5-0.2,1.7-0.5,2.7-0.6c-1.9,0.4,0.1,0.4,0.9,0.4c-0.1-0.1,0.1-0.2,0-0.2c2.2,0.1,0.3-0.5,3.3-0.6l-0.1,0.1
							c1.1-0.2,2.1-0.5,3.3-0.6c0.5,0.2-1.2,0.3-1.2,0.5c1.7-0.2,3.3-0.9,4.9-0.8c-0.7,0.2-1.7,0.3-2.5,0.4c1.7,0.1,1.9,0,3.1-0.1
							l-0.1,0c1-0.1,1.9-0.1,2.9-0.1l-0.7,0c2.1-0.9,4.3-0.5,7.1-1.2c-2.7,0.7-0.4,0.3-0.6,0.6c0.7,0,1.9,0,1.5,0.1
							c1.3-0.4,2.3,0,4.2-0.5c0.1,0.1,1.4-0.1,1.2,0.2c1.8-0.2-0.4-0.1-0.3-0.3c2.7-0.5,6.4-0.1,10.3-0.7c3.4-0.4,4-0.7,7.1-1
							c1.1,0.1-0.9,0.4-0.9,0.4c1.7,0,3,0,4.6-0.2c-0.3,0.1,0,0.2,0.5,0.3c1.3-0.1,0.9-0.4,2.6-0.3c-0.3,0.1-0.7,0.3-1.3,0.4
							c1.5-0.1,3-0.4,4.6-0.5c0.4,0.2-0.9,0.3-1.5,0.4c1.8-0.1,4.6-0.3,5.1-0.5l-1.1-0.1c0.6,0,0.3,0.2-0.1,0.3
							c-1.5,0.2-2.2,0-2.3-0.1l1.1-0.1c-1.2-0.5-4.5,0.2-6.8,0.3l0.9-0.4l-2.3,0.4c-0.5-0.1-0.8-0.3,0.3-0.4c-1.6-0.2-1.4,0.2-2.8,0
							c-0.2,0-0.1-0.1,0.1-0.1l-1.6,0.2c0.3-0.1-0.3-0.3,0.7-0.3c-2.9-0.1-4.6,0.5-5.6,0.3l0.2,0c-3.9,0.3-0.4,0.3-3.3,0.8
							c-0.7-0.2-1.4-0.4-2-0.6l-0.4,0.3c-0.4,0-1.2,0.1-1.1-0.1c-1.5,0.3,0.3,0.1-0.6,0.4c-2-0.1-5.4,0.5-5.9,0.1
							c-0.7,0.3,1.9,0-0.2,0.4c-0.6-0.5-2.4,0.3-4.2,0.2c0.5-0.3,2.2-0.3,0.4-0.4c-1,0.6-3.5,0.2-5,0.4c0,0.4-3.3,0.4-5.8,0.8
							c0.1-0.1-4.8,0.3-7.1,0.5l0.1-0.1c-0.4,0.4-2.8,0.6-4.6,1c0-0.2,0.3-0.4,1.3-0.6l-1.6,0.2c-0.4,0.2-0.9,0.3-1.9,0.5l0.4-0.3
							c-2.2,0.3-4.4,0.9-7.2,1.1c-0.1,0.3,2.3,0.4-0.6,1c-0.1-0.1-0.3-0.3,0.5-0.5c-0.3,0.1-0.9,0.3-1.4,0.3l1.2-0.4
							c-1.3,0.1-0.6,0.3-1.7,0.4c0-0.2-0.8,0-0.7-0.2c0.3-0.1,0.9-0.1,1.3-0.2c-1.2,0.1-2.6,0.2-3.1,0.2c0.1,0.1,0,0.3-0.8,0.4
							c-2.2,0.4-0.8-0.1-2.1,0c-0.5,0.2-1.9,0.3-1.9,0.6c-0.6,0.1-0.8,0-1,0c-1.1,0.3-5.3,1-3.9,1.1l0.3,0c-0.1,0-0.1,0-0.2,0
							c0,0,0,0,0,0l0,0c-1.8,0.5-3.8,0.8-5.7,1.1c-1.9,0.3-3.8,0.6-5.7,1l0-0.1c-2.2,0.5-4.8,1-6.3,1.6c-0.6,0.1-1.6,0.2-1.3,0
							c-1.6,0.4-1.8,0.6-4.2,1c1.6-0.5-0.6,0,1.7-0.5c-2.2,0.4-2.7,0.3-5,1.1c0.7-0.4-1.7,0.1-2.7,0.4l1.5-0.2
							c-1.1,0.3-2.1,0.5-3.2,0.8l0.5-0.5c-2.2,0.3-4.2,1-6,1.6c-1.8,0.6-3.5,1.2-5.2,1.3c-1.1,0.5,2.4-0.5,1.5,0.1
							c-2,0.5-4.2,0.6-4.9,0.7c-2.8,0.6-2.4,1.2-5.3,1.9c0.4,0,0.8,0.2-1.3,0.9c-2,0.5-2.6,0.2-1.4-0.2c0.5-0.1,0.7-0.2,0.7-0.1
							c0.6-0.2,1.5-0.5,0.6-0.4l-0.2,0.2c-1,0.2-3.8,1-3.2,0.6c-1.5,0.5-0.6,0.4,0.5,0.1c-2.6,0.6-4,1.2-6.7,1.9
							c0.4-0.1,0.9-0.1,0.4,0.1c-3.9,1-1.6,0.7-4.2,1.6c-1.5,0.3,0.4-0.6-2.2,0.4c-1.6,0.4-0.4-0.2,0.2-0.5c-2.3,1-4.5,1.3-5.9,1.7
							l1.2-0.5c-0.7,0.3-1.3,0.5-2,0.7l0.8,0c-0.7,0.2-1.4,0.4-1.4,0.3c-0.7,0.4,0.7,0.2-0.7,0.9c-1,0.2-2.9,1.2-3.4,1
							c3.1-1-0.4-0.2,2.1-1.1c-0.5,0.2-1.1,0.4-1.8,0.6c-0.1,0,0.1-0.1,0.3-0.2c-3,0.8-1.2,0.8-4.3,1.9c0.3-0.3-0.8-0.1-1.3,0.1
							c1.2-0.4,0.7,0.1-0.4,0.6c-2,0.6-2.1,0.9-3.1,1.2l1.2-0.4c-0.3,0.3-1.3,0.7-2.6,1.2c-0.2-0.1,1.2-0.6,0.7-0.4
							c-1.4,0.9-3.5,1-5.5,2c-1,0.3-0.2-0.3-1.1,0c-2.2,1.1-2.6,0.8-5,1.9c0.8-0.1,0.9-0.2-0.7,0.7l3.9-1.8l-2.4,1.4
							c1.2-0.5,2.5-1.2,3.2-1.4c-1.2,0.7-1,0.6-0.4,0.5c-1.8,0.3-3.2,1.5-5.2,2.1l-0.2-0.6c-3,0.9-5,2.4-8.7,3.8l1.2-0.4
							c-0.4,0.4-2.3,1-3.4,1.6c0-0.2-0.7,0-1.3,0.1c0.1,0.1-2.7,1.2-2.9,1.7l-1.7,0.5c-3,1.3-3.2,2-6,3.3c0.8-0.6-0.6-0.1,1.2-1.2
							c-0.9,0.4-1.8,0.8-1.8,1c-0.6,0.2-2.5,1.5-3.4,1.7c-0.4,0.3-0.4,0.5-1.5,1c-0.1,0,0-0.1,0-0.1c0,0.1-1.6,0.9-0.6,0.7
							c-3.1,0.9-8,4.1-10.7,4.9c-2,1.1-4.4,2.5-6.2,3.5c0.1-0.1,0-0.1,0.3-0.3c-2.6,1.2-1.3,1.3-4.2,2.7c-1.6,0.5,1.4-1,0.5-0.6
							c-0.7-0.3-3.4,2-5.5,2.7l0.4-0.3c-1.6,0.6-3.4,2.3-5.8,3.6c0,0,0.1-0.1,0-0.1c-0.7,0.6-1.8,1.4-3,2.2
							c-1.2,0.8-2.5,1.7-3.6,2.4c0.6-0.6,0.9-0.7,0.4-0.7c-1,0.7,0.5,0.2-1.4,1.5c-0.7,0.3-2.2,1.1-2.6,1l1.9-1.2
							c-1.2,0.3-2.4,1.5-3.4,2.1l0-0.2c-2.8,1.9-2.6,2.3-5.7,4.2l0.4-0.1c-1.4,1.4-1.5,0.7-3,2.1l-0.7,0c-1,0.8-3.6,2.9-5.5,4.3
							c0.9-1,3.1-2.7,4.4-3.8c-1.1,0.7-3.6,2.5-4.1,3.1c0.4-0.3,0.9-0.8,1.4-1c-1.1,1.2-2.8,2.5-4.9,4c-0.1-0.9-5.6,3.8-7.5,4.5
							c-1.8,1.5-3.6,2.9-5.5,4.2c-1.9,1.4-3.9,2.9-6,4.6c1.9-0.7-1.2,1-0.6,1.3c-1,0.8-1.3,1.1-1.4,1.1L878,420
							c-0.8,0.4,0.8-0.9,0.7-0.9c-2.1,1.7-1,0.5-2.5,1.6c0.4-0.1-0.5,0.8-1.8,1.8l1.9-1.2c-2.7,2.7-2.8,1.8-5.6,4.5l0.8-0.9
							c-1.4,1.4-5.5,4.8-6.6,6.5c-0.3,0.2-0.8,0.4-0.1-0.2c-1.8,1.6-3.6,3.4-5.4,5.2c-1.7,1.8-3.4,3.5-4.8,4.7l0.2-0.4
							c-0.6,0.6-0.9,1.3-1.8,1.9c0-0.1,0.1-0.4-0.1-0.1c-0.3,0.4-1.5,1.8-2.3,2.6l0.6-0.8c-1.7,1.6-2.9,2.9-3.9,4.2
							c-1,1.3-2,2.6-3.3,4c-0.3-0.3-2.9,2.2-4.2,3.5l0-0.1c-1.8,2-3.3,3.7-4.7,5.5c-1.4,1.8-2.7,3.5-4.2,5.5c-1.2,1-2.9,3-4.7,5.2
							c-0.9,1.1-1.8,2.2-2.8,3.4c-0.9,1.1-1.8,2.2-2.6,3.2c0.5-0.6,0.2,0.3-0.3,1c-0.8,0.9-1.7,2.7-1.9,2.3l0.3-0.3
							c-0.9,0.4-2.2,2.5-3.3,4l0.2,0.6c-0.9,0.9-1.8,2-2.6,3.1c-0.9,1.2-1.7,2.5-2.5,3.7c-1.6,2.4-3,4.7-4,5.6
							c-0.5,1.1-1.3,2.3-1.9,3.3l-0.2-0.2c-1.9,2.7-2.7,4.1-4.8,7.6l0.3-0.8c-1.2,1.9-0.8,2.9-1.8,4.7l-0.7,0.3
							c-1,1.7-2.1,3.4-3.1,5.1c-1,1.7-1.9,3.5-2.7,5.3c0-0.1-0.1-0.2,0.2-0.8c-0.4,0.8-1.4,2.4-2.1,3.7c-0.7,1.3-1.1,2.4-0.7,2.2
							c-0.4-0.1-1.9,3.6-2.7,5.6l-0.1-0.4c-0.5,1.8-0.4,1.9-1.4,4.2c-0.3,0.5-0.4,0.4,0-0.3c-1,1.7-0.4,1.5-1.6,3.6l0.2-0.9
							c-0.9,1.9-0.7,1.7-1,2.9c-0.4,1.2-1.6,3.5-2,3.7c0,0.3-0.2,1.4-0.8,2.5c-0.2,0.1,0-0.3,0-0.5c-1.5,3.1-1.6,4.8-2.8,6.9
							c-0.1,0-0.2,0.1-0.3,0.3c1-2.5,1.8-4.6,1.8-4.4c-0.2-0.1-1.1,1.9-0.8,0.2c-0.5,1.7-1.2,4.7-2.1,6.6c-0.1,0.1-0.1,0.2-0.2,0.2
							l0-0.2c-0.2,0.5-0.3,0.9-0.4,1.3c-0.3,0.6-0.5,1-0.7,1.6c-0.3,0.2-1,2.3-1.4,3.4c0.3,0-0.2,1.3,0.4,0.2
							c-0.1,0.2,0-0.2,0.3-0.9c0-0.2,0.1-0.3,0.1-0.4c0,0,0,0,0,0.1c0.2-0.7,0.6-1.6,0.9-2.6c-0.2,0.9-0.4,1.8-0.9,2.8
							c0,0.6-0.1,1.2-0.1,1.6c-0.9,1.3-2,4-2.4,4.3c-0.5,1.6-1,3.5-1.6,5.3c-0.5,1.8-0.8,3.4-0.9,4.5c-0.2,0.9-0.5,1-0.6,1.3
							c0.1-0.5,0.3-1.2,0.3-1.5c-0.2,0.9-0.6,2.3-0.9,3.5c-0.3,1.2-0.5,2.2-0.4,2.5c-0.8,2.3,0-1.4-0.8,1.8l0-0.5
							c-1.1,3.1-1.6,5.7-2,8.4c-0.4,2.7-0.9,5.5-2,8.9c0.1-0.5,0.2-0.7,0.3-0.8c-2.1,8-2.7,16.7-4.3,24.6c-0.4,2.3-0.1,2.6-0.1,4
							l-0.4,0.5l0.1,2.4c0,3.4-1.2,5.8-1,10.2l0.2-0.5c-0.1,1.5-0.1,4.9-0.3,4.6c0,0.2,0.2,0.5,0.1,1.1l-0.2,0c0,1.3,0,2.5,0.1,3.8
							c-0.2,2.9-0.6-0.5-0.7,3.8c0,1.6,0.4,4.6,0.5,4c0-0.6,0.1-1.6,0.3-1.7l0.1,1.5c0.5,0.3,0.9,1.4,1.3-2.2l-0.2-2.5l0.2-0.8
							l0,2.1c0.2-1.2,0.1-1.9-0.1-2.8c0.1-0.2,0.2-0.5,0.3-1c-0.1-0.8-0.3-1.6-0.4-2.5c0.2-0.3,0.3,1.1,0.5-0.5
							c-0.2-1.2-0.5,1.1-0.5-0.8c0.3-1.2,0.4-0.8,0.3-2.2c0.1-0.2,0.2,0.1,0.2,0.7c-0.1-1.2,0.1-3.3-0.1-3.9c0.3-1.2,0.2-4.2,0.7-4
							c-0.1-0.4-0.2-2.2-0.1-3.4c0.4,2.1,0.4-4.3,0.9-3.7c-0.3-1.6,0.4-5.6,0.5-8.3c0,0.2,0,0.5,0,0.7c0.3-1.5,0.5-1.9,0.7-2.9
							c-0.4-0.2-0.1-2.6-0.2-4c0.6-1.8,0.3,1.2,0.7,0.7c-0.3,0,0.1-3.3-0.2-2.7c0.5-1.4,0.3-1.2,0.8-1.9c-0.4-0.3,0.1-1.3,0.1-2.6
							c0.6-2,0.5-0.4,0.8-2.7C763.8,609.9,763.6,612,763.6,612z M777.5,559.3L777.5,559.3c-0.2,0.4-0.3,0.8-0.4,1.1
							C777.2,560.1,777.3,559.8,777.5,559.3z M779.2,555c-0.2,0.5-0.5,1.2-0.7,1.8c-0.1,0.1-0.2-0.1,0-0.5
							C778.5,556.6,778.9,555.6,779.2,555z M773.9,563.4c0.2-0.7,0.3-0.9,0.4-1c-0.1,0.3-0.2,0.7-0.4,1.2c0,0,0,0.1,0,0.1
							C773.9,563.7,773.9,563.6,773.9,563.4z"/>
						<path class="st2" d="M773.8,564.8c0,0.1,0,0.2-0.1,0.3c0.1-0.1,0.1-0.3,0.2-0.4c0-0.1,0-0.2,0-0.3
							C773.9,564.5,773.9,564.7,773.8,564.8z"/>
						<path class="st2" d="M1092.4,324L1092.4,324c0,0,0.1,0,0.1,0C1092.4,324,1092.4,324,1092.4,324z"/>
						<polygon class="st2" points="809.2,499.4 809.1,499.3 809,499.7 						"/>
						<path class="st2" d="M1117.6,321.2c0.1,0,0.1,0,0.3,0C1117.9,321.2,1117.7,321.2,1117.6,321.2z"/>
						<path class="st2" d="M1128.4,320c0.5,0,1,0,1.5-0.1C1129.3,319.9,1128.8,319.9,1128.4,320z"/>
						<path class="st2" d="M1136.8,319.3c0.1-0.1,0.1-0.1,0.2-0.1l0,0L1136.8,319.3z"/>
						<path class="st2" d="M1006.9,348.7c-0.1,0-0.2,0.1-0.3,0.1C1005.9,349.1,1006.4,348.9,1006.9,348.7z"/>
						<path class="st2" d="M1044.5,335.8c-0.4,0.2-0.8,0.3-1.2,0.5C1044,336.1,1044.5,335.9,1044.5,335.8z"/>
						<path class="st2" d="M966.2,366.3C966.2,366.3,966.2,366.3,966.2,366.3c-0.1,0-0.2,0.1-0.2,0.1L966.2,366.3z"/>
						<path class="st2" d="M1041.5,336.7c0.7-0.1,1.3-0.3,1.8-0.5C1042.7,336.4,1042.1,336.5,1041.5,336.7z"/>
						<path class="st2" d="M1173.2,317.5l0.4,0c0,0,0,0,0,0L1173.2,317.5z"/>
						<path class="st2" d="M1173.6,317.4l0.4,0C1173.9,317.4,1173.7,317.4,1173.6,317.4z"/>
						<path class="st2" d="M1175,317.3l-0.9,0.1C1174.4,317.4,1174.8,317.4,1175,317.3z"/>
						<path class="st2" d="M1162.1,317.7l-0.1,0.1C1162,317.8,1162.1,317.7,1162.1,317.7z"/>
						<path class="st2" d="M1158.7,317.9c0.8,0,2,0.1,3.2,0l0.1-0.1C1161.4,318,1159.5,317.7,1158.7,317.9z"/>
						<path class="st2" d="M1144.5,317.5l2.8-0.1c-0.5-0.1-1.2-0.2,0.1-0.3C1143.9,317,1148.2,317.2,1144.5,317.5z"/>
						<path class="st2" d="M1135.7,318c1.5-0.2,0-0.2,0-0.2C1134.8,318,1134.6,318,1135.7,318z"/>
						<path class="st2" d="M1072.8,327.6l0.1-0.3C1071.8,327.6,1072.9,327.5,1072.8,327.6z"/>
						<polygon class="st2" points="1061.3,331.6 1062.4,331.5 1062.9,331.2 						"/>
						<polygon class="st2" points="1053.9,331.6 1054.4,331.5 1052.5,332 						"/>
						<path class="st2" d="M954.1,369.7l0.5,0.1C955.2,369.4,955.2,369,954.1,369.7z"/>
						<path class="st2" d="M914.4,393.3c-0.5,0.1-1.7,0.8-2.2,1.3C913,394.1,914,393.6,914.4,393.3z"/>
						<polygon class="st2" points="814.1,487.9 814.5,487 813.6,488.5 						"/>
					</g>
				</g>
			</g>
		</g>
	</g>
</g>
<g id="toTea">
	<g>
		<g>
			<g>
				<g>
					<g>
						<path class="st2" d="M785,675.7c0-0.1,0-0.3,0-0.2L785,675.7L785,675.7z"/>
						<path class="st2" d="M784.7,675c-0.1,0.2-0.1,0.4-0.1,0.7c0.1-0.3,0.1-0.2,0.1-0.6c0,0,0.1,0.1,0.1,0.2c0-0.1,0.1,0.1,0.1-0.1
							c-0.1-0.3-0.1-0.3-0.2-0.1C784.6,675.2,784.7,675.1,784.7,675z"/>
						<path class="st2" d="M779.9,674.3L779.9,674.3C779.9,674.3,779.9,674.3,779.9,674.3z"/>
						<path class="st2" d="M777,673.8C777,673.8,777,673.7,777,673.8C777,673.7,777,673.7,777,673.8z"/>
						<path class="st2" d="M776.6,673.3C776.6,673.3,776.6,673.3,776.6,673.3C776.6,673.3,776.6,673.3,776.6,673.3z"/>
						<path class="st2" d="M779.9,674.3l-0.1-0.1C779.8,674.3,779.9,674.3,779.9,674.3z"/>
						<path class="st2" d="M784,675.8C784,675.8,784,675.8,784,675.8C784,675.8,784,675.8,784,675.8L784,675.8z"/>
						<path class="st2" d="M781.2,674.1L781.2,674.1c0,0,0-0.1,0.1-0.1L781.2,674.1z"/>
						<path class="st2" d="M782.2,674.1c0,0,0,0.3-0.1,0.4c0-0.1,0-0.2,0.1-0.2C782.2,674.3,782.2,674.2,782.2,674.1z"/>
						<path class="st2" d="M783.8,674.7L783.8,674.7L783.8,674.7z"/>
						<path class="st2" d="M780.5,674c0,0,0-0.1,0-0.1C780.5,673.9,780.5,674,780.5,674z"/>
						<path class="st2" d="M755.8,662.4C755.8,662.4,755.8,662.4,755.8,662.4C755.8,662.4,755.8,662.4,755.8,662.4z"/>
						<polygon class="st2" points="757.1,661 757.1,661 757.2,661 						"/>
						<path class="st2" d="M775.7,672.8L775.7,672.8C775.8,672.8,775.8,672.8,775.7,672.8z"/>
						<path class="st2" d="M767.7,670.8c0,0.3-0.3,0.2-0.2,0.6C767.5,671.2,767.8,671,767.7,670.8z"/>
						<path class="st2" d="M784,675.8C784,675.8,783.9,675.8,784,675.8C783.9,675.8,784,675.8,784,675.8z"/>
						<path class="st2" d="M767.5,671.3L767.5,671.3L767.5,671.3C767.5,671.3,767.5,671.3,767.5,671.3z"/>
						<path class="st2" d="M773.7,672.6c0,0,0,0.1,0,0.1C773.7,672.7,773.7,672.6,773.7,672.6z"/>
						<path class="st2" d="M775.1,673.3L775.1,673.3C775.1,673.3,775.1,673.3,775.1,673.3z"/>
						<path class="st2" d="M772.8,672.8C772.8,672.7,772.8,672.7,772.8,672.8C772.7,672.7,772.7,672.7,772.8,672.8
							C772.7,672.7,772.8,672.7,772.8,672.8z"/>
						<path class="st2" d="M772,672.6C772,672.6,772,672.6,772,672.6L772,672.6L772,672.6z"/>
						<path class="st2" d="M756.9,665.2c0.1-0.1,0.1-0.1,0.2-0.2C757,665.1,756.8,665,756.9,665.2z"/>
						<path class="st2" d="M784,675.7c0,0.1,0,0.1,0,0.1c0,0,0,0,0,0C784,675.7,784,675.7,784,675.7z"/>
						<path class="st2" d="M772.2,674.9l-0.1-0.1C772.1,674.9,772.2,674.9,772.2,674.9z"/>
						<path class="st2" d="M761.5,670L761.5,670C761.5,670.1,761.5,670.1,761.5,670z"/>
						<path class="st2" d="M771.7,674.8c0-0.1,0-0.2,0-0.2c0,0,0,0,0,0.1L771.7,674.8z"/>
						<path class="st2" d="M757.1,665L757.1,665L757.1,665z"/>
						<path class="st2" d="M756.1,664.4c0,0.1,0.4-0.1,0.6-0.1c0.2,0.1-0.2,0.2-0.4,0.3c0.1,0.1,0.5,0,0.5,0.1
							c-0.1,0-0.1,0.1-0.1,0.1c0.3,0,0.2,0.3,0.6,0.3c0,0,0,0-0.1,0.1c0.2-0.1,0.3-0.2,0.4-0.3c0,0.1,0.3,0,0.1,0.1c0,0-0.1,0-0.2,0
							l0.1,0c-0.3,0.2-0.1,0-0.4,0.1c0.2,0.1,0.5,0.1,0.4,0.2c-0.3,0.2-0.2-0.1-0.4,0.1l0-0.2c-0.4,0.4,0-0.1-0.5,0.3
							c0,0.2,0.3,0.1,0.3,0.4c0.2-0.1,0.2-0.2,0.4-0.2c0.4,0.1-0.6,0.6-0.1,0.6c0.2-0.1,0.6-0.3,0.5-0.1l-0.3,0.2
							c0.1,0.2,0.5-0.2,0.4,0.1c-0.1,0.1-0.2-0.1-0.2,0c-0.2,0.3,0.2,0,0.3,0l-0.3,0.2c0.2,0.1,0.5,0.2,0.7,0.3
							c-0.1,0.1-0.2,0.1-0.2,0.2c0.3,0.1,0.4,0.5,0.4,0.8l0.3-0.1c0,0-0.1,0.1-0.1,0.1c0,0.2,0.1-0.1,0.3-0.2c0.1,0-0.1,0.2-0.2,0.2
							c0.3,0,0.8,0,0.7,0.4l-0.1,0c0,0.2,0.5-0.3,0.5,0l-0.1,0c0.2,0.3,0.6,0.3,0.5,0.8c0.3-0.3,0.1,0.4,0.5-0.1
							c0,0.4-0.1,0.4,0,0.7c0,0.1,0.3-0.2,0.4-0.2l-0.2,0.3l0.3-0.2l-0.2,0.3l0.1,0c0,0,0-0.2,0.1-0.2c0.2,0,0.1,0.4,0.1,0.5l0.4,0
							c-0.1,0.1-0.1,0.1-0.2,0.1c0.3-0.2-0.2,0.3,0.1,0.1c0-0.1,0.1-0.1,0.1-0.2c0,0.2,0.1,0.3,0.3,0.3l-0.1,0.2
							c0.2,0.2,0.5,0.2,0.7,0.3c0-0.1,0.2-0.4,0.3-0.4L763,671c0.1-0.2,0-0.1,0.2-0.3c0.1,0.1-0.1,0.3-0.2,0.4l0.2,0
							c0,0.1-0.1,0.1-0.2,0.2c0.1-0.2,0,0.4,0.2,0.1l0,0.1c0.2,0.1,0.4,0.1,0.6,0.2c0.1-0.2,0.2-0.2,0.3-0.3
							c0.1,0.2,0.1,0.4,0.3,0.5c0.2-0.1,0.1-0.2,0.3-0.3c-0.1,0.2,0.1,0.3-0.1,0.4c0.2,0.1,0.3,0.1,0.6,0c0-0.1,0-0.2,0.1-0.2
							c0.1,0,0.1,0.1,0,0.3l0,0c0.4-0.2,0.3,1,0.8,0.6l0,0l0.3-0.1c0.1,0.1-0.1,0.1-0.1,0.3c0.4-0.3,0.4,0.2,0.7,0.1
							c-0.1,0.8,0.6,0.2,0.6,0.7l0.1-0.2c0.1-0.1,0,0.1,0.1,0.2c0-0.1,0-0.2,0.1-0.2c0.6,0,0.9,0.6,1.4,0.9c0.2,0.1,0.4-0.8,0.5-0.4
							l-0.2,0.3c0.5-0.3,0.8,0.2,1.2,0c0,0.1-0.1,0.2-0.1,0.1c0,0.3,0.3,0.1,0.3-0.1c0.1,0,0,0.2,0,0.3c0,0.2,0.3-0.2,0.3,0
							c0,0,0,0.1-0.1,0.1c0.1-0.1,0.2,0.1,0.3-0.2c0.1,0.2,0.3-0.1,0.4,0.1c0.2-0.3,0.2,0.2,0.3-0.2c-0.1,0.4,0.2,0.4,0.3,0.2
							c-0.1,0.1,0,0.2,0,0.3c0.1,0,0.2,0,0.3-0.3c0.1,0.6,0.5-0.3,0.4,0.4c0.4-0.2,0.7-0.3,1-0.3c-0.1,0.4-0.3,0-0.4,0.4
							c0.3-0.1,0.5-0.5,0.8-0.3c0.1,0.1-0.1,0.2-0.1,0.3c0.3-0.1,0.5,0.1,0.8-0.1c0,0,0,0.1-0.1,0.1c0,0,0.1,0.1,0.1-0.1l-0.1,0
							c0-0.3,0.3-0.6,0.3-0.7c-0.2,0.6,0.2,0.2-0.1,0.9c0,0,0.1-0.1,0.1-0.3c0,0,0,0.1,0,0.3c0.2-0.1,0.2-0.3,0.3-0.3
							c0,0.1-0.1,0.1-0.1,0.2c0.1-0.2,0.2-0.4,0.3-0.2c0,0.1,0,0.1-0.1,0.1c0.2,0,0.4-0.4,0.6-0.2c-0.1,0.4,0.1,0.2,0,0.5l0.1-0.1
							l0-0.2c0.1,0,0.2-0.2,0.3-0.1l-0.1,0.1l0.2,0l-0.1-0.2c0.1-0.2,0.1-0.5,0.2-0.3c0,0,0.1,0,0.1,0.2l0,0
							c0.1-0.1,0.1-0.2,0.2-0.1c0,0.1-0.1,0.4-0.1,0.5c0.1-0.3,0.3-0.1,0.4-0.4c0,0.1-0.1,0.3-0.1,0.3l0.1-0.2c0,0.1,0,0.1,0,0.3
							c0.1,0.1,0-0.5,0.2-0.3c0,0,0,0.1,0,0.1c0.2,0.1,0.4-0.1,0.5,0c0,0.4-0.2,0.1-0.1,0.4c0.3,0,0.6-0.4,0.8-0.3l0,0
							c0.1-0.5,0.1,0.3,0.3,0c0,0-0.1,0.3-0.1,0.2c0.2,0.1,0.3-0.1,0.6-0.2l0,0.1c0.1,0.1,0.2,0.1,0.3,0.2c0-0.1,0.1-0.1,0.1-0.3
							c0.2,0.8,0.6-0.4,0.9,0.3c0,0-0.1,0.1-0.1,0.1l0.2-0.1c0-0.2,0-0.1-0.1-0.3c0-0.1,0.1-0.2,0.2-0.2c-0.1,0.1,0,0.4,0,0.5
							c0-0.1,0-0.1,0-0.2c0.1,0.4,0.1-0.5,0.2-0.2l0,0.1c0.1-0.1,0.1-0.2,0.2-0.2c0,0.3-0.1,0.1-0.1,0.3c0.1,0,0.2-0.5,0.3-0.2
							c0,0.1-0.1,0.1-0.1,0.1c0.1,0.3,0.1,0.2,0.2,0.3l0,0l0.2,0.2l0-0.1c0.2-0.7,0.3-0.1,0.4-0.6c-0.2,0.4,0,0.2-0.1,0.6
							c0,0.1,0.1,0.2,0.1,0.3c0.1-0.2,0.1,0.2,0.2-0.2c0,0.1,0.1,0,0.1,0.3c0.1-0.1,0-0.2,0-0.3c0.2-0.3,0.3,0.4,0.6,0
							c0.2-0.2,0.2-0.5,0.4-0.7c0.1,0.2-0.1,0.4-0.1,0.4c0.1,0.1,0.2,0.1,0.3,0c0,0.1,0,0.2,0,0.3c0.1,0,0.1-0.4,0.1-0.2
							c0,0.1,0,0.3-0.1,0.4c0.1-0.1,0.2-0.3,0.3-0.4c0,0.2-0.1,0.3-0.1,0.4c0.1-0.1,0.3-0.1,0.3-0.4l-0.1-0.1c0,0,0,0.2,0,0.3
							c-0.1,0.2-0.1-0.1-0.1-0.2l0.1-0.1c-0.1-0.6-0.3,0.1-0.4,0l0.1-0.4l-0.1,0.3c0-0.1,0-0.3,0-0.4c-0.1-0.2-0.1,0.1-0.2-0.1
							c0,0,0-0.1,0-0.1l-0.1,0.1c0-0.1,0-0.3,0-0.2c-0.2-0.2-0.3,0.3-0.3,0l0,0c-0.2,0.1,0,0.3-0.2,0.7l-0.1-0.8l0,0.3
							c0,0-0.1,0-0.1-0.2c-0.1,0.2,0,0.1,0,0.3c-0.1-0.3-0.3,0.1-0.3-0.4c0,0.2,0.1,0.2,0,0.3c0-0.5-0.1,0.1-0.2-0.2
							c0-0.3,0.1-0.1,0-0.4c-0.1,0.5-0.2-0.1-0.3,0c0,0.4-0.2,0.1-0.3,0.3c0-0.1-0.3-0.2-0.4-0.4l0-0.1c0,0.4-0.2,0.3-0.3,0.4
							c0-0.2,0-0.3,0.1-0.4l-0.1,0c0,0.1-0.1,0.2-0.1,0.2l0-0.3c-0.1,0-0.3,0.3-0.4,0.1c0,0.3,0.1,0.7-0.1,0.9c0-0.1,0-0.4,0.1-0.4
							c0,0-0.1,0.1-0.1,0l0.1-0.2c-0.1-0.1-0.1,0.2-0.1,0.2c0-0.2,0-0.1,0-0.3c0,0,0,0.1,0.1,0c-0.1,0-0.1-0.2-0.1-0.3
							c0,0.1,0,0.3-0.1,0.3c-0.1,0,0-0.2-0.1-0.3c0,0.1-0.1,0-0.1,0.3c0,0,0-0.1,0-0.2c-0.1,0.1-0.3,0-0.3,0.3l0,0l0,0h0h0
							c-0.2,0.3-0.4-0.2-0.6-0.1l0-0.1c-0.1,0.1-0.3,0-0.4,0.2c0,0-0.1-0.2,0-0.3c-0.1,0.1-0.1,0.2-0.2,0c0.1-0.2,0-0.2,0.1-0.1
							c-0.1-0.1-0.1-0.3-0.3,0c0.1-0.2-0.1-0.3-0.1-0.3l0.1,0.2c-0.1,0-0.1,0-0.2,0l0.1-0.3c-0.2-0.4-0.5,0.6-0.6-0.1
							c-0.1,0.2,0.1,0.2,0,0.4c-0.1-0.1-0.2-0.5-0.2-0.6c-0.1-0.2-0.2,0.5-0.4,0.3c0,0.1,0,0.4-0.2,0.5c-0.1-0.1-0.1-0.5,0-0.6
							c0,0,0,0,0,0.1c0,0,0.1-0.1,0.1-0.2l0,0.1c0-0.1-0.2-0.1-0.1-0.3c-0.1,0.1-0.1,0.2,0,0.3c-0.1-0.2-0.2,0-0.4-0.2
							c0,0.1,0,0.2,0,0.2c-0.2-0.2-0.1,0.2-0.3,0.2c-0.1-0.2,0.1-0.4-0.1-0.3c-0.1-0.1,0-0.3,0.1-0.4c-0.2,0.2-0.2-0.2-0.3-0.2
							l0.1-0.1c-0.1,0-0.1,0-0.1,0l0,0.2c0,0-0.1-0.1-0.1-0.2c-0.1,0.1,0,0.4-0.2,0.6c0-0.1-0.2,0.1-0.2-0.2c0.2,0.1,0-0.3,0.2-0.3
							c0,0-0.1,0-0.1,0c0,0,0-0.1,0-0.1c-0.1-0.3-0.1,0.3-0.3,0.3c0.1-0.2,0-0.3,0-0.3c0.1,0,0,0.3-0.1,0.4
							c-0.1-0.2-0.1,0.1-0.2,0.1l0.1,0.1c-0.1,0.2-0.1,0.1-0.2,0.2c0-0.1,0.1-0.1,0.1-0.1c-0.1,0.3-0.1-0.4-0.3-0.2
							c0-0.1,0.1-0.3,0-0.4c-0.2,0.2-0.1-0.3-0.3-0.1c0,0.2,0,0.2-0.1,0.4l0.3-0.1l-0.2,0.3c0.1,0,0.2-0.1,0.2-0.1
							c-0.1,0.2-0.1,0.1-0.1,0.3c0-0.4-0.2,0.2-0.3-0.1l0.1-0.6c-0.1-0.3-0.4,0.2-0.5,0l0,0.1c-0.1,0.2-0.1,0-0.2,0.1
							c0-0.2,0-0.3,0-0.4c0,0.1-0.2-0.1-0.3,0.3l0-0.3c-0.1-0.1-0.3,0.5-0.5,0.4c0.1-0.2,0.1-0.4,0.2-0.5c-0.1,0-0.1-0.1-0.1,0.1
							c0-0.1-0.2,0.2-0.2,0c0,0.1-0.1,0.3-0.2,0.2c0,0,0-0.1,0-0.1c0,0.1-0.1,0.1-0.1,0.3c0-0.6-0.5-0.1-0.5-0.6
							c-0.1,0-0.3,0.1-0.4,0c0-0.1,0-0.1,0-0.1c-0.1-0.2-0.2,0.5-0.4,0.3c0-0.3,0.1-0.1,0.1-0.3c0.2-0.6-0.2,0-0.2-0.4l0,0
							c0-0.2-0.3,0.2-0.4,0.1c0,0,0-0.1,0-0.1c-0.2,0.3-0.4,0.3-0.6,0.4c0.1-0.2,0.1-0.1,0.2-0.4c-0.1,0-0.1,0.4-0.3,0.4
							c0-0.1-0.1-0.3,0-0.6l0.1,0c0-0.4-0.2,0-0.2-0.1l0.1-0.1c-0.2,0-0.3,0.4-0.5,0.3l0,0.1c-0.2,0.3,0-0.2-0.2,0l0.1-0.4
							c-0.1,0.1-0.4,0.3-0.5,0.3c0.2-0.2,0.4-0.3,0.5-0.5c-0.1,0-0.2-0.1-0.3,0.1c0,0,0.1-0.1,0.1,0c-0.2,0.3-0.3,0.4-0.5,0.3
							c0.3-0.7-0.3-0.3-0.2-0.9c-0.3,0.2-0.4-0.3-0.7-0.3c-0.1,0.6-0.1,0-0.3,0.6c-0.1,0-0.1,0-0.1,0l-0.1-0.4
							c0-0.2,0.1-0.1,0.2-0.2c-0.1-0.1,0-0.3,0-0.5c-0.1,0.2-0.2,0.3-0.2,0.2l0,0.3c-0.3,0.2,0-0.5-0.3-0.3l0.1-0.1
							c-0.1,0.1-0.3-0.2-0.6,0.2c0-0.1,0.1-0.2,0.1-0.3c-0.2-0.2-0.7,0.2-0.8-0.1l0.1-0.1c-0.1,0-0.2,0.2-0.2,0.1
							c0-0.1,0.1-0.1,0.1-0.1c0,0-0.2,0.2-0.2,0.1l0.1-0.1c-0.1-0.3-0.5,0.2-0.7,0.2c0.2-0.4,0.1-0.6,0.1-0.7l0-0.1
							c-0.2-0.2-0.6,0.1-0.9,0.1c0.1-0.5-0.4-0.4-0.5-0.8c0,0.1-0.2,0.3-0.3,0.3c0-0.1-0.3,0.2-0.1-0.2l0,0c0.2-0.4,0-0.3-0.1-0.4
							l-0.3,0.4c0.2-0.8-0.7-0.1-0.4-0.8c-0.1,0.1-0.2,0-0.3,0.1l0.2-0.2c-0.1-0.2-0.1-0.2-0.3-0.3l0.2-0.1
							c-0.1-0.1-0.6,0.5-0.7,0.5l0.2-0.3c-0.2-0.1-0.1-0.5-0.5-0.4c0,0,0.1-0.1,0.2-0.1c-0.1-0.1-0.1-0.4-0.5,0
							c0.3-0.3-0.1-0.2-0.3-0.1l0.2-0.2c-0.3,0.2-0.4,0.3-0.5,0.2c0,0,0.1-0.2,0.1-0.1c0-0.2-0.2,0.1-0.2-0.1l0.2-0.1
							c-0.1-0.1-0.1,0-0.3,0.1c-0.1,0-0.1-0.2,0.1-0.4c-0.1,0.1-0.3,0.2-0.3,0.1c0.1-0.1,0.1-0.1,0.2-0.1c0-0.3-0.4,0-0.3-0.2
							c0.1-0.1,0.1-0.1,0.1-0.1c0.1,0.1,0.2,0.2,0.1,0.2c0.2-0.2,0.1-0.3,0.5-0.5c-0.2,0.1-0.6,0.2-0.6,0.1c0,0,0,0,0.1-0.1l0,0
							c0,0,0,0-0.1,0c0-0.1,0-0.1,0-0.1c0.2-0.1,0-0.2,0-0.2c-0.2,0.2-0.2,0.1-0.4,0.3c0,0,0,0,0.1,0c0,0,0,0,0,0l0,0
							c0,0,0.1,0.1,0.1,0.1c-0.1,0.1-0.3,0.1-0.2-0.1c-0.2,0.1-0.3,0.2-0.4,0.2c0.3-0.3,0.3-0.5,0.5-0.7c-0.2,0-0.3-0.3-0.8-0.1
							c-0.1,0,0.1-0.1,0.2-0.2c0.1,0,0.1,0,0.1,0c-0.2,0-0.2-0.2-0.5,0c0.1-0.2,0.3-0.1,0.2-0.2l0.1,0c0.4-0.6-1.1,0-0.6-0.7
							c0,0,0,0.1-0.1,0.1c0.1-0.5-0.6-0.7-0.2-1.3c0.1-0.1-0.2-0.1-0.4-0.1l0.3-0.1l-0.4,0c-0.3-0.1,0.7-0.4,0.2-0.6l-0.2,0.1
							c0-0.1-0.1-0.2,0.1-0.3c0,0-0.2,0-0.1,0l0.2,0l-0.3-0.2c0.1-0.2,0.6,0,0.6-0.2c-0.1-0.1-0.5-0.2-0.6-0.2c0,0-0.1,0.1-0.2,0.1
							l-0.1-0.1c-0.5,0-1-0.1-1.3,0.1l0.3,0.2l-0.2,0.1l0-0.1c-0.2,0.1,0,0.1,0.1,0.2c-0.1,0-0.2,0-0.2,0.1l0.5,0.1
							c-0.2,0-0.4,0-0.5,0.1c0.2,0.1,0.4-0.1,0.5,0c-0.2,0.1-0.4,0.1-0.2,0.2c-0.1,0-0.2,0-0.3,0c0.2,0.1,0.1,0.2,0.3,0.2
							c-0.3,0.1,0.1,0.3-0.3,0.3c0.1,0,0.4,0.1,0.4,0.1c-0.5,0,0,0.3-0.5,0.4c0.5,0,0.3,0.3,0.6,0.4c0,0-0.1,0-0.1,0
							c0,0.1-0.1,0.2-0.2,0.3c0.4-0.1,0.5,0,0.8,0c-0.3,0.2-0.5,0.1-0.8,0.2c0.3-0.1,0.4,0.1,0.6,0c-0.2,0.2-0.1,0.1-0.4,0.3
							c0.5-0.2,0.1,0.1,0.4,0c-0.2,0.2-0.4,0.2-0.2,0.3C756.3,664.4,756.1,664.4,756.1,664.4z M758.6,666.9L758.6,666.9
							C758.5,666.8,758.5,666.8,758.6,666.9C758.5,666.8,758.5,666.8,758.6,666.9z M758.7,667.1C758.7,667,758.7,667,758.7,667.1
							c0-0.2,0.1-0.2,0.1-0.2C758.8,666.9,758.8,667,758.7,667.1z M759.9,665.4C760,665.4,759.9,665.4,759.9,665.4
							C759.9,665.5,759.9,665.5,759.9,665.4l-0.1,0.1C759.8,665.4,759.9,665.4,759.9,665.4z"/>
						<path class="st2" d="M759.6,665.6C759.6,665.6,759.6,665.6,759.6,665.6C759.6,665.6,759.5,665.6,759.6,665.6L759.6,665.6
							L759.6,665.6z"/>
						<path class="st2" d="M779.9,674.3L779.9,674.3C779.9,674.3,779.9,674.4,779.9,674.3C779.9,674.4,779.9,674.4,779.9,674.3z"/>
						<polygon class="st2" points="761.2,670 761.2,669.9 761.2,670 						"/>
						<path class="st2" d="M781.3,675.4C781.3,675.4,781.3,675.5,781.3,675.4C781.3,675.5,781.3,675.4,781.3,675.4z"/>
						<path class="st2" d="M781.9,675.5l0.1,0.1C781.9,675.6,781.9,675.5,781.9,675.5z"/>
						<path class="st2" d="M782.4,675.7c0,0,0-0.1,0-0.1l0,0L782.4,675.7z"/>
						<path class="st2" d="M774.8,675.1C774.8,675.1,774.8,675.1,774.8,675.1C774.7,675.2,774.7,675.2,774.8,675.1z"/>
						<path class="st2" d="M777.1,674.9c0,0-0.1,0.1-0.1,0.1C777.1,675,777.1,675,777.1,674.9z"/>
						<polygon class="st2" points="772.2,674.9 772.2,674.9 772.2,674.9 						"/>
						<path class="st2" d="M776.9,675c0,0.1,0.1,0.1,0.1,0C777,675,777,674.9,776.9,675z"/>
						<path class="st2" d="M784.4,675.9L784.4,675.9C784.4,675.9,784.4,675.8,784.4,675.9L784.4,675.9z"/>
						<path class="st2" d="M784.4,675.8L784.4,675.8C784.5,675.8,784.4,675.8,784.4,675.8z"/>
						<path class="st2" d="M784.5,675.7L784.5,675.7C784.5,675.8,784.5,675.8,784.5,675.7z"/>
						<path class="st2" d="M783.8,675.7l0,0.1C783.8,675.8,783.8,675.8,783.8,675.7z"/>
						<path class="st2" d="M783.6,675.7c0,0,0.1,0.2,0.2,0.2l0-0.1C783.7,676,783.6,675.6,783.6,675.7z"/>
						<path class="st2" d="M782.8,674.5l0.2,0.1c0-0.1-0.1-0.3,0-0.3C782.8,673.9,783,674.5,782.8,674.5z"/>
						<path class="st2" d="M782.4,674.3c0.1,0,0-0.2,0-0.2C782.3,674.2,782.3,674.2,782.4,674.3z"/>
						<path class="st2" d="M778.9,674l0-0.3C778.8,673.8,778.9,673.9,778.9,674z"/>
						<polygon class="st2" points="778,675.2 778.1,675.4 778.2,675.2 						"/>
						<polygon class="st2" points="777.9,673.4 777.9,673.3 777.8,673.4 						"/>
						<path class="st2" d="M772.2,672.4l-0.1,0.3C772.2,672.6,772.3,672.3,772.2,672.4z"/>
						<path class="st2" d="M769.7,671.9c0-0.2,0-0.3-0.1-0.1C769.6,671.8,769.6,672,769.7,671.9z"/>
						<polygon class="st2" points="763.2,668.3 763.3,668.2 763.2,668.2 						"/>
					</g>
				</g>
			</g>
		</g>
	</g>
</g>
<g id="toHome">
	<g>
		<g>
			<g>
				<g>
					<g>
						<path class="st2" d="M786,674.3c-0.3,0.1-0.1,0.3,0.7,0.2l0.6-0.3L786,674.3z"/>
						<path class="st2" d="M791.8,674.8c1-0.2,2.2-0.5,1.5-0.8c-1,0.3-1.2,0.2-2.3,0.6c-0.9,0.1-1.5-0.1-1.4-0.2
							c-0.3,0.1-1.3,0-1.8,0.2c1.1,0.2,2.5,0.2,4,0C792.2,674.7,791.9,674.8,791.8,674.8z"/>
						<path class="st2" d="M875.5,666.2l-0.5,0.1C875.1,666.3,875.3,666.3,875.5,666.2z"/>
						<path class="st2" d="M926,652.7c-0.4,0.1-0.5,0.2-0.5,0.3C925.8,652.8,926.1,652.7,926,652.7z"/>
						<path class="st2" d="M934.5,650c-0.2,0.1-0.3,0.1-0.5,0.2C934.2,650.2,934.4,650.1,934.5,650z"/>
						<path class="st2" d="M875.5,666.2l1.4-0.2C877,665.9,876.2,666.1,875.5,666.2z"/>
						<path class="st2" d="M803.4,673.8c-0.3,0-0.5,0.1-0.8,0.1C802.9,673.8,803.1,673.8,803.4,673.8
							C803.4,673.8,803.4,673.8,803.4,673.8z"/>
						<path class="st2" d="M852.9,670.6l-0.4,0.1c-0.1,0.1-0.2,0.1-0.3,0.2L852.9,670.6z"/>
						<path class="st2" d="M835.4,672.9c0.4,0,0.5-0.3,0.6-0.5c-0.2,0.1-0.5,0.2-0.8,0.3C835.2,672.8,835.2,672.9,835.4,672.9z"/>
						<path class="st2" d="M807.4,674.8l-0.5,0.1C807,674.8,807.2,674.8,807.4,674.8z"/>
						<path class="st2" d="M865.4,668.6c0,0,0.1,0.1,0.2,0.1C865.6,668.7,865.5,668.6,865.4,668.6z"/>
						<path class="st2" d="M1181,336.4C1181,336.4,1181,336.4,1181,336.4C1181,336.3,1181,336.2,1181,336.4z"/>
						<path class="st2" d="M1183.1,316l0,0.3c0.1,0,0.1,0.1,0.2,0.1L1183.1,316z"/>
						<path class="st2" d="M949.9,644.5C949.9,644.5,949.9,644.5,949.9,644.5C949.5,644.7,949.7,644.6,949.9,644.5z"/>
						<path class="st2" d="M1075.3,563.4c-1.4,1,1.8-2.1-0.3-0.6C1075.3,562.8,1073.7,564.8,1075.3,563.4z"/>
						<path class="st2" d="M803.8,673.8c0.2,0,0.5,0,0.7,0C804.2,673.8,804,673.8,803.8,673.8z"/>
						<path class="st2" d="M1075.1,562.8L1075.1,562.8l-0.2,0.2C1074.9,562.9,1075,562.9,1075.1,562.8z"/>
						<path class="st2" d="M984,628.5c-0.1,0-0.2,0-0.4,0.1C983.7,628.6,983.8,628.6,984,628.5z"/>
						<path class="st2" d="M958.6,640.3l0.6-0.3C959,640.2,958.8,640.2,958.6,640.3z"/>
						<path class="st2" d="M996.7,621.2c0.3-0.2,0.5-0.2,0.9-0.5c0,0-0.1,0-0.2,0C997.3,620.9,997.1,621.1,996.7,621.2z"/>
						<path class="st2" d="M1009.8,613.6c-0.1,0-0.2,0.1-0.3,0.1c-0.1,0.1-0.3,0.2-0.4,0.3L1009.8,613.6z"/>
						<path class="st2" d="M1175,381.8c0.1-0.3,0.3-0.5,0.4-0.6C1175.2,381.3,1175.5,379.1,1175,381.8z"/>
						<path class="st2" d="M803.4,673.9c0.1-0.1,0.2-0.1,0.4-0.1c-0.2,0-0.3,0-0.5,0C803.3,673.8,803.3,673.9,803.4,673.9z"/>
						<path class="st2" d="M996.1,619l2.1-1.2C997.6,618.2,996.9,618.6,996.1,619z"/>
						<path class="st2" d="M1136.5,482.4l0.2-0.5C1136.7,482,1136.6,482.2,1136.5,482.4z"/>
						<path class="st2" d="M1004.3,614.2c0.4-0.1,0.8-0.3,1.3-0.5c0.1-0.1,0.2-0.1,0.2-0.2L1004.3,614.2z"/>
						<path class="st2" d="M1175.4,381.1C1175.4,381.1,1175.4,381.1,1175.4,381.1C1175.4,381.1,1175.4,381.1,1175.4,381.1z"/>
						<path class="st2" d="M1177.6,365.5c-0.3,2.3,0.2,1.1,0.4,1.6c-0.3,2.7-0.4,1.2-0.8,2.1c-0.1,1.7-0.1,3-0.3,4.3
							c-0.1,0.1-0.1,0.3-0.2,0c-0.1,1.8-1,5.2-1.1,7.4c-0.1,0.1-0.1,0.2-0.1,0.3c0.2-0.3,0.4-0.3,0.6-0.2c-0.2,1-0.1,1.9-0.5,2.2
							c0.1-0.6,0-0.7,0-1l-0.1,1.1c-0.5,0.9,0.2-1.5-0.1-1.5c-0.3,2.1-0.5,4.5-0.9,6.1c-0.4,0.3,0.6-3.7-0.1-1.7l0.6-2.4
							c-0.9,1.7,0.3-1.5-0.6,0.1c-0.7,3.2-0.5,3.6-1.4,6.8c0,0.8,0.3-0.2,0.3,0.6c-0.8,4.6-1.7,3.3-2.1,6.7c0,0.9,0.3,1.4-0.5,3.6
							l-0.2-0.9c-0.8,3,0.1,1.9-1,5c0-0.6,0.5-2.4,0.3-2c-0.8,2-0.1,1.5-0.6,3.1l-0.4,0.2c-1,3.2-1.8,6.8-2.9,10.4
							c0-0.2,0.1-0.9-0.3-0.1c-0.3,1.1-0.7,2.3-1,3.5c-0.2,0.6-0.4,1.2-0.6,1.8l-0.7,1.7c-0.9,2.3-1.9,4.6-2.8,6.7l-0.3,1.7
							c-0.1,0.4-0.4,0.7-0.3,0.2c-0.7,1.6,0.1,0.2,0,1c-0.3,0.9-0.6,1.2-0.5,0.6c-0.2,0.7-0.5,1.7-0.8,2.6c-0.3,1-0.6,2.1-1.1,3.1
							c-0.8,2.1-1.7,4.2-2.5,5.6l0.2-0.6c-1.1,2.3-0.6,2.9-1.8,5l0.1-0.4c-0.6,1.3-1.2,2.6-1.7,3.9c-0.3,0.7-0.6,1.3-0.9,1.9
							c-0.3,0.6-0.6,1.3-0.9,1.9c-1.2,2.5-2.4,4.8-3.6,6.6c0,0.9-2.6,4.8-2.3,5.4c-1.7,2.7-1.4,1.8-3.7,5.6c-0.6,1-0.6,1.7-1.2,3
							l-0.3-0.1l-0.7,1.9l-0.8,0.7l-0.6,1.2c0.3-0.5,0.7-0.9,0.7-0.8c-0.9,2-2.8,4.5-2.9,4.4c-0.4,0.8-0.8,1.5-1.2,2.3l-1.3,2.2
							c0-0.2,0.4-0.9,0.7-1.5c-1.2,2.5-0.5,0.2-1.6,2.5c0.2-0.2,0.1,0.2,0.1,0.3c-0.8,1-2.3,3.3-3.4,5.2l0-0.5c-1,1.6-2.1,3.3-3.2,5
							c-1.1,1.7-2.3,3.4-3.6,5.2c1-1.2,1.1-0.7,0.4,0.3l-0.6,0.2c-0.3,0.8,0.9-1,0.1,0.5c-1,1.3-0.9,0.7-0.5-0.1l-1,1.6
							c-0.1,0,0.1-0.4,0-0.5c-0.3,0.8-2.2,2.5-2.6,3.7l-0.1,0c-1.2,1.7-2.1,3-2.9,4.2c-0.9,1.1-1.7,2.2-2.7,3.6
							c0.2,0.2-0.7,1.3-1.2,2.2c-1.6,1.9-3.6,4-5.4,6.5c-1.2,1.8-0.2,0.6-0.7,1.5c-0.3,0-2.3,2.3-1.4,1c-2.4,2.8-3,3.6-5.9,7.2
							c0.4-0.3,0.8-0.7,0.7-0.4c-0.5,0.7-1.3,1.4-1.4,1.2l0.1-0.2c-0.8,1.1-1.7,2.1-2.7,3.2c-1,1.1-2,2.1-3.1,3.1
							c-2.1,2-4.1,3.8-5.4,5.5l0.1-0.2l-2.8,3.3c-1.4,1.4,0.7-1-0.4,0c-2.9,3.7-5.3,5.1-7.8,8c-1.3,0.7-3.2,2.6-5.2,4.5
							c-1,1-2,2-2.9,2.9c-1,0.9-2,1.6-2.8,2.2l0.3,0c-0.7,0.8-1,0.7-1.6,1.2c0.2,0,1-0.6,0.5-0.1c-3.3,2.9-6.7,5.9-10.2,8.7
							c-3.7,2.7-7.3,5.4-10.9,8.1c-1.3,1-1.5,1.5-1.9,2c-0.4,0.5-0.8,1.1-2.6,2.1l0.8-0.9c-2.6,2.1-5.4,4-8.1,6
							c-1.4,1-2.7,2-4.1,2.9c-0.7,0.5-1.3,1-2,1.5c-0.7,0.5-1.3,0.9-2,1.4c0.3-0.3,0.2-0.4,0.8-0.7c-1.3,0.5-4.3,2.7-4.2,2.9
							c-0.9,0.5-0.3,0-0.9,0.2c-1.2,0.6-2.7,2.1-3.5,2.3c-0.1,0,0.3-0.3,0.5-0.4c-0.7,0.6-3.5,2.2-2.7,2c-2.1,1.2-3.8,2.7-5.6,3.5
							c-0.9,0.9-3.7,2-3.8,2.5c-0.1-0.5-3.9,1.8-5.1,2.8c0.4-0.4-1.2,0.5-0.8,0.1c-1.5,0.9-2.9,1.8-2.5,1.8
							c-0.8,0.3-1.5,0.7-2.2,1.1c-0.7,0.4-1.4,0.8-2,1.1c-1.2,0.7-2.3,1.4-3.3,1.5c-2.3,1.3-4.5,2.6-6.6,3.8
							c-2.1,1.2-4.2,2.4-6.3,3.4c0-0.2,1.2-0.8,2.3-1.4c1.1-0.6,2.2-1.2,2-1.3c-1,0.6-1.8,1.1-2.6,1.5c-0.8,0.4-1.6,0.9-2.4,1.3
							c-1.5,0.8-3.1,1.6-5.1,2.5c-1.1,0.4,0.5-0.5,0.8-0.7c-4,2-7.8,3.6-11.4,5.4c0,0,0.4-0.2,0.7-0.4c-0.7,0.3-1.7,0.6-1.5,0.8
							l0.7-0.3c1.3-0.2-2.6,1.7-2.7,1.9c1-1-3.7,1.3-2-0.1c-0.5,0.2-1,0.6-0.9,0.6c-0.7,0.3-1,0.3-0.3-0.2c-2.5,1.2-1.5,1-3.9,1.9
							c0-0.1,0.4-0.3,0.6-0.5c-1.1,0.7-2.2,1.3-4.3,2.1c0.1-0.1-0.2-0.1,0.4-0.3c-3.4,1.5-5.7,2.7-9.6,3.9c1-0.8-1.3,0.3-1.7,0
							l-2,0.8l0.9-0.1c-1.8,0.6-3.3,1.5-4.9,1.9l1.3-0.6l-3.3,1.3l1.9-0.5c-1.8,0.8,0.3,0.4-2.1,1.1c0.5-0.2-1.8,0.7-2.8,0.7l0,0
							c-0.9,0.4-1.8,0.8-3.1,1.1c-0.4,0,0.2-0.5-0.1-0.5c-0.8,0.6-4.2,1.4-5.3,2c0.4-0.2,0.3-0.4,0.2-0.4l-0.7,0.5
							c-0.9,0.2-1,0.2-0.9,0c-2.6,0.7,0.9,0.2-2.1,0.9c0.2-0.1,0.1-0.1,0.6-0.3c-3.1,0.8-5.8,2-8.7,2.5c-0.9-0.1,2.4-0.7,1.4-0.8
							c-4,1.1-8.3,2.6-12.2,3.5l0.7-0.1c-0.4,0.7-3,0.5-4.9,1.2c0.5-0.2,0.6-0.4,0.5-0.4c-1.4,0.3-2.7,0.6-4.3,1
							c-1.5,0.4-3.3,0.8-5.3,1.4l0.5-0.2c-1.6,0.2-4.2,0.8-6,1.1c-0.5,0.2-1.5,0.4-0.8,0.5c-1.4,0.1-2.7,0.3-4,0.5
							c-1.3,0.3-2.5,0.5-3.8,0.8c-2.5,0.5-4.9,1-7.3,1.1c0.6-0.1,1.3-0.3,0.9-0.3l-4,0.8c0.4,0.2,0.6,0.1,1.4,0.1
							c-0.5,0.2-1.6,0.5-2.6,0.7c1.8-0.4-0.1-0.4-0.9-0.4c0.1,0-0.1,0.2,0,0.2c-2.2-0.1-0.3,0.5-3.2,0.7l0.1-0.1
							c-1.1,0.3-2.1,0.5-3.3,0.6c-0.5-0.2,1.1-0.3,1.2-0.5c-1.7,0.2-3.2,0.9-4.7,0.8c0.7-0.2,1.7-0.3,2.4-0.4
							c-1.7-0.1-1.9,0-3.1,0.1l0.1,0l-2.8,0.2l0.7,0c-2,0.9-4.2,0.6-6.9,1.4c2.7-0.7,0.4-0.3,0.6-0.6c-0.7,0-1.8,0-1.5-0.1
							c-1.3,0.4-2.2,0.1-4,0.6c-0.1-0.1-1.4,0.1-1.1-0.2c-1.7,0.2,0.4,0.1,0.3,0.3c-2.6,0.5-6.3,0-10,0.7c-3.3,0.4-3.9,0.8-6.9,1.2
							c-1-0.1,0.8-0.4,0.8-0.4c-0.8,0-1.6,0-2.3,0.1c-0.7,0-1.4,0.1-2.2,0.2c0.3-0.1,0-0.2-0.5-0.3c-1.3,0.1-0.8,0.4-2.5,0.3
							c0.3-0.1,0.6-0.3,1.2-0.4c-1.5,0.1-2.9,0.3-4.5,0.5c-0.4-0.2,0.9-0.3,1.5-0.4c-1.7,0.1-4.5,0.3-5,0.5l1.1,0.1
							c-0.6,0-0.3-0.2,0.1-0.3c1.5-0.2,2.1,0,2.2,0.1l-1.1,0.1c1.1,0.5,4.4-0.2,6.6-0.2l-0.9,0.4l2.2-0.4c0.5,0.1,0.8,0.3-0.3,0.4
							c1.6,0.2,1.4-0.2,2.8,0c0.2,0,0.1,0.1-0.1,0.1l1.5-0.2c-0.3,0.1,0.3,0.3-0.7,0.3c2.8,0,4.5-0.6,5.5-0.4l-0.2,0
							c3.8-0.4,0.4-0.3,3.2-0.9l2,0.6l0.4-0.3c0.4,0,1.2,0,1,0.1c1.5-0.3-0.3-0.1,0.6-0.4c1.9,0.1,5.3-0.5,5.7,0
							c0.7-0.3-1.8-0.1,0.2-0.4c0.6,0.5,2.3-0.4,4.1-0.3c-0.5,0.3-2.2,0.4-0.4,0.4c1-0.6,3.4-0.3,4.9-0.5c0-0.4,3.2-0.5,5.6-0.9
							c-0.1,0.1,4.7-0.3,7-0.5l-0.1,0.1c0.4-0.4,2.7-0.7,4.4-1.1c0,0.2-0.3,0.4-1.2,0.6l1.6-0.3c0.4-0.2,0.9-0.3,1.9-0.5l-0.4,0.3
							c2.1-0.4,4.3-1,7-1.3c0.1-0.3-2.3-0.4,0.6-1c0.1,0.1,0.3,0.3-0.5,0.5c0.2-0.1,0.9-0.3,1.4-0.3l-1.1,0.4
							c1.3-0.1,0.6-0.3,1.6-0.4c0,0.2,0.8,0,0.6,0.2c-0.3,0.1-0.9,0.1-1.3,0.2c1.1-0.1,2.5-0.3,3-0.2c-0.1-0.1,0-0.3,0.8-0.4
							c2.1-0.5,0.8,0.1,2-0.1c0.5-0.2,1.9-0.4,1.8-0.7c0.6-0.1,0.8,0,1,0c1.1-0.4,5.1-1.1,3.8-1.2l-0.3,0c0.1,0,0.1,0,0.2,0
							c0,0,0,0,0,0l0,0c3.5-1,7.5-1.4,11-2.3l0,0.1c2.1-0.7,4.7-1.3,6.1-1.9c0.6-0.2,1.5-0.2,1.3,0c1.6-0.5,1.7-0.6,4.1-1.1
							c-1.6,0.6,0.6,0-1.6,0.5c2.1-0.5,2.6-0.4,4.8-1.3c-0.7,0.4,1.7-0.1,2.6-0.4l-1.5,0.2c1.1-0.3,2.1-0.5,3.1-0.8l-0.4,0.5
							c4.4-0.9,7.4-3,10.9-3.3c1.1-0.6-2.3,0.5-1.4,0c2-0.6,4.1-0.7,4.7-0.9c2.7-0.7,2.4-1.2,5.2-2c-0.4,0-0.8-0.2,1.2-1
							c1.9-0.6,2.5-0.4,1.3,0.2c-0.5,0.2-0.7,0.2-0.7,0.2c-0.6,0.3-1.4,0.6-0.6,0.5l0.2-0.2c1-0.2,3.6-1.2,3.1-0.8
							c1.4-0.6,0.6-0.4-0.5-0.1c2.5-0.7,3.8-1.4,6.4-2.2c-0.4,0.1-0.8,0.1-0.4-0.1c3.8-1.2,1.6-0.8,4.1-1.7c1.5-0.3-0.4,0.6,2.1-0.5
							c1.6-0.4,0.4,0.2-0.1,0.5c1.1-0.5,2.2-0.9,3.2-1.2c1-0.3,1.8-0.6,2.5-0.8l-1.2,0.6c0.7-0.3,1.3-0.6,1.9-0.8l-0.8,0.1
							c0.7-0.2,1.3-0.5,1.3-0.4c0.7-0.4-0.7-0.1,0.7-0.9c1-0.3,2.8-1.3,3.2-1.1c-3,1.1,0.4,0.2-2,1.2c0.5-0.2,1.1-0.5,1.8-0.7
							c0.1,0-0.1,0.1-0.3,0.2c2.9-0.9,1.2-0.9,4.1-2c-0.3,0.3,0.8,0,1.3-0.2c-1.2,0.5-0.7,0,0.3-0.6c1.9-0.6,2-0.9,3-1.3l-1.1,0.4
							c0.3-0.3,1.3-0.7,2.5-1.3c0.2,0.1-1.1,0.6-0.6,0.5c1.3-0.9,3.3-1.2,5.2-2.3c1-0.3,0.2,0.3,1.1,0c2.1-1.2,2.5-0.9,4.8-2.1
							c-0.8,0.1-0.9,0.2,0.7-0.8l-3.8,1.9l2.3-1.5c-1.2,0.5-2.4,1.3-3.1,1.5c1.1-0.7,1-0.6,0.4-0.5c1.7-0.4,3-1.6,5-2.3l0.2,0.6
							c1.4-0.5,2.6-1.1,3.9-1.9c1.3-0.8,2.6-1.6,4.4-2.4l-1.2,0.5c0.4-0.5,2.1-1.1,3.2-1.8c0,0.2,0.7-0.1,1.3-0.2
							c-0.1-0.1,2.6-1.3,2.7-1.8l1.7-0.6c1.4-0.7,2.2-1.2,2.9-1.8c0.7-0.5,1.4-1.1,2.8-1.8c-0.7,0.6,0.6,0.1-1.1,1.2
							c0.9-0.5,1.7-0.9,1.6-1.1c0.6-0.2,2.3-1.6,3.2-2c0.3-0.3,0.3-0.5,1.3-1.1c0.1,0,0,0.1,0,0.1c0-0.1,1.5-1,0.5-0.7
							c3-1.1,7.6-4.4,10.2-5.4c1.8-1.3,4.1-2.8,5.7-3.9c-0.1,0.1,0,0.1-0.3,0.3c2.4-1.4,1.1-1.4,3.9-2.9c1.5-0.6-1.3,1.1-0.4,0.6
							c0.7,0.3,3.2-2.1,5.2-3l-0.4,0.3c1.5-0.7,3.1-2.5,5.3-4c0,0-0.1,0.1,0,0.1c1.3-1.3,4-3.4,6.1-5c-0.5,0.7-0.9,0.8-0.3,0.7
							c0.9-0.7-0.5-0.1,1.3-1.5c0.7-0.3,2.1-1.2,2.5-1.1l-1.8,1.3c1.1-0.4,2.3-1.6,3.2-2.3l0,0.2c2.6-2.1,2.4-2.4,5.2-4.6l-0.4,0.1
							c1.3-1.5,1.4-0.8,2.8-2.3l0.7-0.1c1-0.9,3.3-3.1,5.1-4.6c-0.8,1-2.9,2.8-4.1,4c1-0.8,3.4-2.7,3.8-3.3
							c-0.4,0.3-0.8,0.8-1.3,1.1c0.5-0.6,1.2-1.2,1.9-1.9c0.7-0.7,1.6-1.5,2.5-2.3c0.2,0.9,5.1-4.2,6.9-4.9c1.6-1.6,3.3-3,5.1-4.5
							c1.7-1.6,3.5-3.2,5.4-5c-1.8,0.8,1.1-1.1,0.4-1.3c0.9-0.9,1.2-1.2,1.3-1.2l2.9-2.3c0.8-0.5-0.7,0.9-0.6,0.9
							c2-1.8,1-0.6,2.4-1.7c-0.4,0.1,0.5-0.8,1.6-1.9c-0.6,0.5-1.1,0.9-1.7,1.3c1.3-1.4,1.9-1.9,2.5-2.4c0.7-0.5,1.3-1,2.5-2.5
							l-0.7,1c1.3-1.5,4.9-5.1,5.9-6.9c0.3-0.2,0.7-0.4,0.2,0.2c3.3-3.2,6.5-8,9.1-10.5l-0.1,0.4c0.5-0.7,0.8-1.3,1.6-2
							c0,0.1-0.1,0.4,0.2,0.1c0.3-0.4,1.3-1.9,2.1-2.7l-0.5,0.8c3.2-3.2,4.1-5.6,6.4-8.6c0.3,0.3,2.6-2.4,3.8-3.8l0,0.1
							c1.6-2.1,3-3.8,4.2-5.7c1.2-1.8,2.3-3.7,3.6-5.7c1.1-1.1,2.6-3.1,4.2-5.4c0.8-1.1,1.7-2.3,2.5-3.5c0.8-1.2,1.5-2.3,2.2-3.3
							c-0.5,0.6-0.2-0.3,0.2-1c0.7-0.9,1.4-2.8,1.7-2.4l-0.2,0.3c0.8-0.5,2-2.5,2.9-4.1l-0.3-0.5c0.8-0.9,1.6-2,2.4-3.2
							c0.8-1.2,1.4-2.6,2.1-3.8c1.3-2.5,2.5-4.8,3.5-5.8c0.5-1.1,1.2-2.3,1.6-3.4l0.2,0.2c0.8-1.4,1.5-2.4,2-3.5
							c0.6-1.2,1.2-2.4,2-4.2l-0.2,0.8c1-2,0.5-2.9,1.4-4.7l0.7-0.4c1.7-3.5,3.9-6.8,5-10.5c0,0.1,0.1,0.2-0.1,0.8
							c0.7-1.7,3.1-6.4,2.3-6c0.4,0.1,1.6-3.7,2.3-5.6l0.1,0.4c0.4-1.8,0.4-1.8,1.1-4.2c0.2-0.5,0.4-0.4,0,0.3
							c0.8-1.8,0.3-1.5,1.3-3.7l-0.1,0.9c0.7-1.9,0.6-1.8,0.8-2.9c0.3-1.2,1.4-3.5,1.7-3.7c0-0.3,0.1-1.4,0.6-2.5
							c0.1-0.1,0.1,0.3,0,0.5c0.7-1.5,1-2.7,1.4-3.8c0.3-1.1,0.5-2,1-3.1c0.1,0,0.2-0.1,0.3-0.3c-0.4,1.3-0.8,2.4-1,3.2
							c-0.3,0.8-0.5,1.2-0.5,1.1c0.2,0.1,1-1.9,0.8-0.2c0.4-1.7,0.8-4.7,1.6-6.6c0.1-0.1,0.1-0.2,0.2-0.2l0,0.2
							c0.2-0.5,0.3-0.9,0.4-1.3c0.2-0.6,0.4-1,0.6-1.6c0.3-0.2,0.8-2.3,1.2-3.3c-0.3,0,0.2-1.3-0.4-0.1c0.1-0.2,0,0.2-0.2,0.9
							c0,0.2-0.1,0.3-0.1,0.4c0,0,0,0,0-0.1c-0.2,0.7-0.5,1.6-0.8,2.6c0.1-0.9,0.3-1.7,0.8-2.8c0-0.6,0-1.2,0-1.6
							c0.8-1.3,1.9-3.9,2.2-4.2c0.7-3.2,1.8-7.5,1.8-9.6c0.2-0.9,0.4-1,0.6-1.3c-0.1,0.5-0.2,1.2-0.2,1.5c0.3-1.8,1.3-5.4,1.1-5.9
							c0.7-2.2,0,1.4,0.7-1.8l0,0.4c1.9-6.1,1.1-10.3,3.2-17c-0.1,0.5-0.2,0.7-0.3,0.8c0.2-1,0.5-2,0.6-3c0.1-1,0.3-2,0.4-3
							c0.3-2,0.5-4.1,0.8-6.1c0.5-4.1,1.2-8.1,1.7-12.1c0.3-2.2,0.1-2.5,0-3.9l0.3-0.5l-0.2-2.4c0-1.7,0.3-3.1,0.6-4.6
							c0.3-1.5,0.6-3.2,0.4-5.3l-0.2,0.5c0.1-1.5,0-4.8,0.2-4.5c0-0.2-0.2-0.5-0.1-1.1l0.2,0l-0.2-3.7c0.2-2.9,0.6,0.5,0.8-3.7
							c0-1.6-0.3-4.5-0.5-3.9c0,0.6-0.1,1.6-0.3,1.7l0-1.4c-0.5-0.3-0.9-1.3-1.3,2.1l0.2,2.4l-0.2,0.8l0-2c-0.2,1.2-0.1,1.9,0,2.7
							c-0.1,0.2-0.2,0.5-0.3,1l0.4,2.4c-0.2,0.3-0.3-1.1-0.5,0.5c0.2,1.1,0.4-1.1,0.5,0.8c-0.2,1.2-0.4,0.8-0.3,2.2
							c-0.1,0.2-0.2-0.1-0.2-0.6c0.1,1.2,0,3.2,0.2,3.9c-0.2,0.6-0.1,1.6-0.2,2.5c-0.1,0.9-0.2,1.5-0.4,1.5c0.1,0.4,0.2,2.2,0.1,3.3
							c-0.4-2.1-0.4,4.2-0.9,3.6c0.3,1.5-0.2,5.4-0.2,8.1c0-0.2-0.1-0.5,0-0.7c-0.2,1.5-0.3,1.9-0.6,2.9c0.4,0.2,0.1,2.6,0.2,3.9
							c-0.6,1.8-0.3-1.2-0.7-0.6c0.3-0.1-0.1,3.2,0.2,2.6c-0.4,1.4-0.3,1.2-0.7,1.9c0.5,0.3-0.1,1.3,0,2.5c-0.5,2-0.5,0.5-0.7,2.7
							C1177.4,367.5,1177.6,365.5,1177.6,365.5z M1166.1,417.5L1166.1,417.5c0.1-0.4,0.2-0.8,0.3-1.1
							C1166.3,416.7,1166.2,417,1166.1,417.5z M1164.7,421.8c0.2-0.5,0.4-1.2,0.6-1.9c0.1-0.1,0.2,0.1,0,0.5
							C1165.4,420.2,1165,421.2,1164.7,421.8z M1169.4,413.3c-0.2,0.7-0.3,0.9-0.4,1c0.1-0.3,0.2-0.7,0.3-1.2c0,0,0-0.1,0-0.1
							C1169.4,413.1,1169.4,413.2,1169.4,413.3z"/>
						<path class="st2" d="M1169.4,412c0-0.1,0-0.2,0.1-0.3c-0.1,0.1-0.1,0.3-0.2,0.4c0,0.1,0,0.2,0,0.3
							C1169.4,412.2,1169.4,412.1,1169.4,412z"/>
						<path class="st2" d="M874.9,666.3L874.9,666.3c0,0-0.1,0-0.1,0C874.8,666.3,874.8,666.3,874.9,666.3z"/>
						<polygon class="st2" points="1138.9,477.9 1138.9,478 1139.1,477.6 						"/>
						<path class="st2" d="M850.3,669.7c-0.1,0-0.1,0-0.3,0C850,669.7,850.2,669.7,850.3,669.7z"/>
						<path class="st2" d="M839.8,671l-1.5,0.1C838.9,671.1,839.4,671.1,839.8,671z"/>
						<path class="st2" d="M831.6,671.8c-0.1,0.1-0.1,0.1-0.1,0.1l0,0L831.6,671.8z"/>
						<path class="st2" d="M957.3,638.8c0.1,0,0.2-0.1,0.3-0.1C958.3,638.3,957.8,638.6,957.3,638.8z"/>
						<path class="st2" d="M921.2,653.2c0.4-0.2,0.8-0.3,1.2-0.5C921.7,652.9,921.2,653,921.2,653.2z"/>
						<path class="st2" d="M995.9,619.1C995.9,619.1,995.9,619.1,995.9,619.1c0.1,0,0.1-0.1,0.2-0.1L995.9,619.1z"/>
						<path class="st2" d="M924.1,652.1c-0.7,0.2-1.2,0.4-1.7,0.6C922.9,652.5,923.6,652.3,924.1,652.1z"/>
						<path class="st2" d="M796.1,673.9l-0.4,0c0,0,0,0,0,0L796.1,673.9z"/>
						<path class="st2" d="M795.6,673.9l-0.4,0C795.4,674,795.6,674,795.6,673.9z"/>
						<path class="st2" d="M794.3,674.1l0.9-0.1C794.9,674,794.5,674,794.3,674.1z"/>
						<path class="st2" d="M806.9,673.8l0.1-0.1C807,673.7,806.9,673.7,806.9,673.8z"/>
						<path class="st2" d="M810.2,673.5c-0.8,0-2-0.1-3.1,0.1l-0.1,0.1C807.6,673.5,809.5,673.7,810.2,673.5z"/>
						<path class="st2" d="M824.1,673.8l-2.8,0.1c0.5,0.1,1.1,0.2-0.1,0.3C824.7,674.3,820.5,674,824.1,673.8z"/>
						<path class="st2" d="M832.7,673.1c-1.5,0.2,0,0.2,0,0.2C833.6,673.1,833.8,673.1,832.7,673.1z"/>
						<path class="st2" d="M893.9,662.2l-0.1,0.3C894.9,662.1,893.8,662.4,893.9,662.2z"/>
						<path class="st2" d="M905,657.9l-1.1,0.2l-0.5,0.4C904,658.3,904.5,658.1,905,657.9z"/>
						<polygon class="st2" points="912.2,657.6 911.8,657.8 913.6,657.1 						"/>
						<path class="st2" d="M1007.6,615.2l-0.5-0.1C1006.5,615.5,1006.5,615.9,1007.6,615.2z"/>
						<path class="st2" d="M1044.6,589.3c0.5-0.2,1.5-0.9,2.1-1.5C1045.8,588.5,1045,589,1044.6,589.3z"/>
						<polygon class="st2" points="1135.1,489.6 1134.7,490.4 1135.5,488.9 						"/>
					</g>
				</g>
			</g>
		</g>
	</g>
</g>
</svg>
